<svg width="336" height="336" viewBox="0 0 336 336" fill="none" xmlns="http://www.w3.org/2000/svg">
<path d="M0 0H336V336H0V0Z" fill="#FFFDF5"/>
<path d="M78.614 202.644C78.614 204.994 78.3936 207.272 77.9529 209.476C77.5121 211.68 76.7774 213.663 75.749 215.426C74.7205 217.116 73.3247 218.475 71.5616 219.503C69.872 220.532 67.7415 221.046 65.1703 221.046C62.7461 221.046 60.6524 220.532 58.8893 219.503C57.1996 218.401 55.7671 217.006 54.5917 215.316C53.4898 213.553 52.6817 211.569 52.1674 209.365C51.6532 207.162 51.3961 204.958 51.3961 202.754C51.3961 200.403 51.6165 198.162 52.0572 196.032C52.5715 193.828 53.3428 191.881 54.3713 190.192C55.4733 188.502 56.9058 187.143 58.6689 186.115C60.432 185.086 62.5991 184.572 65.1703 184.572C67.7415 184.572 69.872 185.086 71.5616 186.115C73.2512 187.143 74.6103 188.502 75.6388 190.192C76.7407 191.808 77.5121 193.718 77.9529 195.922C78.3936 198.052 78.614 200.293 78.614 202.644ZM78.8344 224.021V231.294H93.7106V152.616H78.063V181.266H77.8427C76.0796 178.474 73.6553 176.381 70.5698 174.985C67.5579 173.516 64.3622 172.781 60.983 172.781C56.7956 172.781 53.1224 173.626 49.9635 175.316C46.8046 176.932 44.16 179.099 42.0296 181.817C39.9726 184.535 38.3932 187.694 37.2912 191.294C36.2627 194.82 35.7485 198.493 35.7485 202.313C35.7485 206.28 36.2627 210.1 37.2912 213.773C38.3932 217.446 39.9726 220.715 42.0296 223.581C44.16 226.372 46.8414 228.613 50.0737 230.302C53.3061 231.919 57.0527 232.727 61.3135 232.727C65.0601 232.727 68.4027 232.065 71.3412 230.743C74.3532 229.347 76.7775 227.107 78.614 224.021H78.8344ZM140.579 196.693H115.124C115.198 195.591 115.418 194.342 115.786 192.947C116.226 191.551 116.924 190.228 117.879 188.98C118.908 187.731 120.23 186.702 121.846 185.894C123.536 185.013 125.63 184.572 128.127 184.572C131.947 184.572 134.776 185.6 136.612 187.657C138.522 189.714 139.845 192.726 140.579 196.693ZM115.124 206.611H156.227C156.521 202.203 156.153 197.979 155.125 193.938C154.096 189.898 152.407 186.298 150.056 183.139C147.779 179.98 144.84 177.483 141.24 175.646C137.641 173.736 133.417 172.781 128.568 172.781C124.234 172.781 120.267 173.552 116.667 175.095C113.141 176.638 110.092 178.768 107.521 181.486C104.95 184.131 102.966 187.29 101.571 190.963C100.175 194.636 99.4769 198.603 99.4769 202.864C99.4769 207.272 100.138 211.312 101.46 214.985C102.856 218.659 104.803 221.817 107.301 224.462C109.798 227.107 112.847 229.164 116.447 230.633C120.046 232.029 124.087 232.727 128.568 232.727C135.033 232.727 140.543 231.257 145.097 228.319C149.652 225.38 153.031 220.495 155.235 213.663H141.461C140.947 215.426 139.551 217.116 137.273 218.732C134.996 220.275 132.278 221.046 129.119 221.046C124.711 221.046 121.332 219.907 118.981 217.63C116.63 215.353 115.345 211.68 115.124 206.611ZM161.54 191.845C161.761 188.171 162.679 185.123 164.295 182.699C165.911 180.274 167.968 178.327 170.466 176.858C172.964 175.389 175.755 174.36 178.841 173.773C182 173.112 185.159 172.781 188.317 172.781C191.182 172.781 194.084 173.001 197.023 173.442C199.961 173.81 202.643 174.581 205.067 175.756C207.491 176.932 209.475 178.585 211.017 180.715C212.56 182.772 213.332 185.527 213.332 188.98V218.622C213.332 221.193 213.478 223.654 213.772 226.005C214.066 228.356 214.58 230.119 215.315 231.294H199.447C199.153 230.413 198.896 229.531 198.676 228.649C198.529 227.694 198.419 226.739 198.345 225.784C195.847 228.356 192.909 230.155 189.53 231.184C186.15 232.212 182.698 232.727 179.171 232.727C176.453 232.727 173.919 232.396 171.568 231.735C169.217 231.074 167.16 230.045 165.397 228.649C163.634 227.254 162.238 225.491 161.21 223.36C160.255 221.23 159.777 218.695 159.777 215.757C159.777 212.524 160.328 209.88 161.43 207.823C162.605 205.692 164.075 204.003 165.838 202.754C167.674 201.505 169.731 200.587 172.009 199.999C174.36 199.338 176.71 198.824 179.061 198.456C181.412 198.089 183.726 197.795 186.003 197.575C188.281 197.354 190.301 197.024 192.064 196.583C193.827 196.142 195.223 195.518 196.251 194.71C197.28 193.828 197.757 192.579 197.684 190.963C197.684 189.273 197.39 187.951 196.802 186.996C196.288 185.968 195.554 185.196 194.599 184.682C193.717 184.094 192.652 183.727 191.403 183.58C190.227 183.36 188.942 183.249 187.546 183.249C184.461 183.249 182.036 183.911 180.273 185.233C178.51 186.555 177.482 188.759 177.188 191.845H161.54ZM197.684 203.415C197.023 204.003 196.178 204.48 195.149 204.848C194.194 205.141 193.129 205.399 191.954 205.619C190.852 205.839 189.676 206.023 188.428 206.17C187.179 206.317 185.93 206.5 184.681 206.721C183.506 206.941 182.33 207.235 181.155 207.602C180.053 207.97 179.061 208.484 178.18 209.145C177.371 209.733 176.71 210.504 176.196 211.459C175.682 212.414 175.425 213.626 175.425 215.096C175.425 216.491 175.682 217.667 176.196 218.622C176.71 219.577 177.408 220.348 178.29 220.936C179.171 221.45 180.2 221.817 181.375 222.038C182.551 222.258 183.763 222.368 185.012 222.368C188.097 222.368 190.485 221.854 192.174 220.826C193.864 219.797 195.113 218.585 195.921 217.189C196.729 215.72 197.206 214.251 197.353 212.782C197.574 211.312 197.684 210.137 197.684 209.255V203.415ZM222.612 152.616V231.294H238.259V152.616H222.612ZM259.396 212.782H244.52C244.667 216.602 245.512 219.797 247.054 222.368C248.671 224.866 250.691 226.886 253.115 228.429C255.613 229.972 258.441 231.074 261.6 231.735C264.759 232.396 267.991 232.727 271.297 232.727C274.529 232.727 277.688 232.396 280.774 231.735C283.933 231.147 286.724 230.082 289.149 228.539C291.573 226.997 293.52 224.976 294.989 222.479C296.532 219.907 297.303 216.749 297.303 213.002C297.303 210.357 296.789 208.153 295.76 206.39C294.732 204.554 293.373 203.048 291.683 201.872C289.993 200.623 288.047 199.632 285.843 198.897C283.712 198.162 281.508 197.538 279.231 197.024C277.027 196.51 274.86 196.032 272.73 195.591C270.599 195.15 268.689 194.673 266.999 194.159C265.383 193.571 264.061 192.836 263.032 191.955C262.004 191.073 261.49 189.935 261.49 188.539C261.49 187.363 261.784 186.445 262.371 185.784C262.959 185.049 263.657 184.498 264.465 184.131C265.347 183.764 266.302 183.543 267.33 183.47C268.359 183.323 269.314 183.249 270.195 183.249C272.987 183.249 275.411 183.8 277.468 184.902C279.525 185.931 280.664 187.951 280.884 190.963H295.76C295.466 187.437 294.548 184.535 293.005 182.258C291.536 179.907 289.663 178.034 287.385 176.638C285.108 175.242 282.5 174.25 279.562 173.663C276.697 173.075 273.721 172.781 270.636 172.781C267.55 172.781 264.538 173.075 261.6 173.663C258.661 174.177 256.017 175.132 253.666 176.528C251.315 177.85 249.405 179.687 247.936 182.037C246.54 184.388 245.842 187.4 245.842 191.073C245.842 193.571 246.356 195.701 247.385 197.465C248.413 199.154 249.772 200.587 251.462 201.762C253.152 202.864 255.062 203.782 257.192 204.517C259.396 205.178 261.637 205.766 263.914 206.28C269.497 207.455 273.832 208.631 276.917 209.806C280.076 210.982 281.655 212.745 281.655 215.096C281.655 216.491 281.325 217.667 280.664 218.622C280.002 219.503 279.158 220.238 278.129 220.826C277.174 221.34 276.072 221.744 274.823 222.038C273.648 222.258 272.509 222.368 271.407 222.368C269.865 222.368 268.359 222.185 266.889 221.817C265.493 221.45 264.245 220.899 263.143 220.165C262.041 219.356 261.122 218.365 260.388 217.189C259.727 215.94 259.396 214.471 259.396 212.782Z" fill="#0F1B86"/>
<path d="M52.7976 95.9772V139.353H57.9614V95.9772H52.7976ZM91.9621 139.231C91.0711 139.758 89.8359 140.021 88.2564 140.021C86.9198 140.021 85.8466 139.657 85.0366 138.928C84.2671 138.158 83.8823 136.923 83.8823 135.222C82.4648 136.923 80.8043 138.158 78.9008 138.928C77.0378 139.657 75.0128 140.021 72.8258 140.021C71.4083 140.021 70.0515 139.859 68.7555 139.535C67.5 139.211 66.4065 138.705 65.475 138.016C64.5435 137.328 63.7942 136.437 63.2272 135.343C62.7007 134.209 62.4375 132.853 62.4375 131.273C62.4375 129.491 62.7412 128.033 63.3487 126.899C63.9562 125.765 64.746 124.854 65.718 124.165C66.7305 123.436 67.8645 122.89 69.12 122.525C70.416 122.161 71.7323 121.857 73.0688 121.614C74.4863 121.33 75.8228 121.128 77.0783 121.006C78.3743 120.844 79.5083 120.642 80.4803 120.399C81.4523 120.115 82.2218 119.731 82.7888 119.245C83.3558 118.718 83.6393 117.969 83.6393 116.997C83.6393 115.863 83.4166 114.952 82.9711 114.263C82.5661 113.575 82.0193 113.048 81.3308 112.684C80.6828 112.319 79.9336 112.076 79.083 111.955C78.273 111.833 77.463 111.772 76.653 111.772C74.466 111.772 72.6435 112.198 71.1855 113.048C69.7275 113.858 68.9377 115.417 68.8162 117.726H63.6525C63.7335 115.782 64.1385 114.142 64.8675 112.805C65.5965 111.469 66.5685 110.395 67.7835 109.585C68.9985 108.735 70.3755 108.127 71.9145 107.763C73.494 107.398 75.1748 107.216 76.9568 107.216C78.3743 107.216 79.7716 107.317 81.1486 107.52C82.5661 107.722 83.8418 108.147 84.9758 108.795C86.1098 109.403 87.0211 110.274 87.7096 111.408C88.3981 112.542 88.7424 114.02 88.7424 115.843V132.002C88.7424 133.217 88.8031 134.108 88.9246 134.675C89.0866 135.242 89.5726 135.526 90.3826 135.526C90.8281 135.526 91.3546 135.424 91.9621 135.222V139.231ZM83.5786 123.133C82.9306 123.619 82.0801 123.983 81.0271 124.226C79.9741 124.429 78.8603 124.611 77.6858 124.773C76.5518 124.894 75.3975 125.056 74.223 125.259C73.0485 125.421 71.9955 125.704 71.064 126.109C70.1325 126.514 69.363 127.102 68.7555 127.871C68.1885 128.6 67.905 129.613 67.905 130.909C67.905 131.759 68.067 132.488 68.391 133.096C68.7555 133.663 69.201 134.128 69.7275 134.493C70.2945 134.857 70.9425 135.121 71.6715 135.283C72.4005 135.445 73.17 135.526 73.98 135.526C75.681 135.526 77.139 135.303 78.354 134.857C79.5691 134.371 80.5613 133.784 81.3308 133.096C82.1003 132.367 82.6673 131.597 83.0318 130.787C83.3963 129.937 83.5786 129.147 83.5786 128.418V123.133ZM95.1278 95.9772V139.353H100.292V135.161H100.413C100.98 136.093 101.669 136.882 102.479 137.53C103.329 138.138 104.22 138.624 105.152 138.988C106.083 139.353 107.015 139.616 107.946 139.778C108.918 139.94 109.789 140.021 110.558 140.021C112.948 140.021 115.034 139.596 116.816 138.745C118.638 137.895 120.137 136.741 121.311 135.283C122.526 133.784 123.417 132.043 123.984 130.058C124.592 128.074 124.895 125.968 124.895 123.74C124.895 121.513 124.592 119.407 123.984 117.422C123.377 115.438 122.465 113.696 121.25 112.198C120.076 110.658 118.577 109.443 116.755 108.552C114.973 107.661 112.867 107.216 110.437 107.216C108.25 107.216 106.245 107.621 104.423 108.431C102.6 109.2 101.264 110.456 100.413 112.198H100.292V95.9772H95.1278ZM119.428 123.376C119.428 124.915 119.266 126.413 118.942 127.871C118.618 129.329 118.091 130.625 117.362 131.759C116.633 132.893 115.661 133.804 114.446 134.493C113.272 135.181 111.794 135.526 110.012 135.526C108.23 135.526 106.711 135.202 105.455 134.554C104.2 133.865 103.167 132.974 102.357 131.881C101.588 130.787 101.021 129.532 100.656 128.114C100.292 126.656 100.109 125.158 100.109 123.619C100.109 122.161 100.271 120.723 100.595 119.305C100.96 117.888 101.527 116.632 102.296 115.539C103.066 114.405 104.058 113.494 105.273 112.805C106.488 112.117 107.966 111.772 109.708 111.772C111.368 111.772 112.806 112.096 114.021 112.744C115.277 113.392 116.289 114.263 117.059 115.357C117.869 116.45 118.456 117.706 118.82 119.123C119.225 120.5 119.428 121.918 119.428 123.376ZM132.901 123.679C132.901 121.776 133.144 120.095 133.63 118.637C134.156 117.139 134.865 115.883 135.756 114.871C136.647 113.858 137.68 113.089 138.854 112.562C140.069 112.036 141.345 111.772 142.682 111.772C144.018 111.772 145.274 112.036 146.448 112.562C147.663 113.089 148.716 113.858 149.607 114.871C150.498 115.883 151.187 117.139 151.673 118.637C152.199 120.095 152.462 121.776 152.462 123.679C152.462 125.583 152.199 127.284 151.673 128.782C151.187 130.24 150.498 131.476 149.607 132.488C148.716 133.46 147.663 134.209 146.448 134.736C145.274 135.262 144.018 135.526 142.682 135.526C141.345 135.526 140.069 135.262 138.854 134.736C137.68 134.209 136.647 133.46 135.756 132.488C134.865 131.476 134.156 130.24 133.63 128.782C133.144 127.284 132.901 125.583 132.901 123.679ZM127.433 123.679C127.433 125.988 127.757 128.134 128.405 130.119C129.053 132.103 130.025 133.845 131.321 135.343C132.617 136.801 134.217 137.956 136.12 138.806C138.024 139.616 140.211 140.021 142.682 140.021C145.193 140.021 147.38 139.616 149.243 138.806C151.146 137.956 152.746 136.801 154.042 135.343C155.338 133.845 156.31 132.103 156.958 130.119C157.606 128.134 157.93 125.988 157.93 123.679C157.93 121.371 157.606 119.224 156.958 117.24C156.31 115.215 155.338 113.473 154.042 112.015C152.746 110.517 151.146 109.342 149.243 108.492C147.38 107.641 145.193 107.216 142.682 107.216C140.211 107.216 138.024 107.641 136.12 108.492C134.217 109.342 132.617 110.517 131.321 112.015C130.025 113.473 129.053 115.215 128.405 117.24C127.757 119.224 127.433 121.371 127.433 123.679ZM162.013 107.945V139.353H167.177V125.38C167.177 123.355 167.38 121.573 167.785 120.034C168.19 118.455 168.838 117.118 169.729 116.025C170.62 114.931 171.794 114.101 173.252 113.534C174.71 112.967 176.472 112.684 178.538 112.684V107.216C175.743 107.135 173.434 107.702 171.612 108.917C169.789 110.132 168.25 112.015 166.995 114.567H166.873V107.945H162.013ZM199.456 123.922C199.456 122.383 199.618 120.885 199.942 119.427C200.266 117.969 200.792 116.673 201.521 115.539C202.25 114.405 203.222 113.494 204.437 112.805C205.652 112.117 207.13 111.772 208.872 111.772C210.654 111.772 212.173 112.117 213.428 112.805C214.684 113.453 215.696 114.324 216.466 115.417C217.276 116.511 217.863 117.787 218.227 119.245C218.592 120.662 218.774 122.14 218.774 123.679C218.774 125.137 218.592 126.575 218.227 127.993C217.903 129.41 217.357 130.686 216.587 131.82C215.818 132.913 214.825 133.804 213.61 134.493C212.395 135.181 210.917 135.526 209.176 135.526C207.515 135.526 206.057 135.202 204.802 134.554C203.587 133.906 202.574 133.035 201.764 131.941C200.995 130.848 200.407 129.613 200.002 128.236C199.638 126.818 199.456 125.38 199.456 123.922ZM223.756 139.353V95.9772H218.592V112.137H218.47C217.903 111.205 217.195 110.436 216.344 109.828C215.534 109.18 214.663 108.674 213.732 108.309C212.8 107.904 211.869 107.621 210.937 107.459C210.006 107.297 209.135 107.216 208.325 107.216C205.936 107.216 203.83 107.661 202.007 108.552C200.225 109.403 198.727 110.577 197.512 112.076C196.337 113.534 195.446 115.255 194.839 117.24C194.272 119.224 193.988 121.33 193.988 123.558C193.988 125.785 194.292 127.891 194.899 129.876C195.507 131.86 196.398 133.602 197.572 135.1C198.787 136.599 200.286 137.794 202.068 138.685C203.89 139.576 206.017 140.021 208.447 140.021C210.634 140.021 212.638 139.636 214.461 138.867C216.283 138.097 217.62 136.842 218.47 135.1H218.592V139.353H223.756ZM257.701 139.231C256.81 139.758 255.575 140.021 253.996 140.021C252.659 140.021 251.586 139.657 250.776 138.928C250.006 138.158 249.622 136.923 249.622 135.222C248.204 136.923 246.544 138.158 244.64 138.928C242.777 139.657 240.752 140.021 238.565 140.021C237.147 140.021 235.791 139.859 234.495 139.535C233.239 139.211 232.146 138.705 231.214 138.016C230.283 137.328 229.533 136.437 228.966 135.343C228.44 134.209 228.177 132.853 228.177 131.273C228.177 129.491 228.48 128.033 229.088 126.899C229.695 125.765 230.485 124.854 231.457 124.165C232.47 123.436 233.604 122.89 234.859 122.525C236.155 122.161 237.471 121.857 238.808 121.614C240.226 121.33 241.562 121.128 242.818 121.006C244.114 120.844 245.248 120.642 246.22 120.399C247.192 120.115 247.961 119.731 248.528 119.245C249.095 118.718 249.379 117.969 249.379 116.997C249.379 115.863 249.156 114.952 248.71 114.263C248.305 113.575 247.759 113.048 247.07 112.684C246.422 112.319 245.673 112.076 244.822 111.955C244.012 111.833 243.202 111.772 242.392 111.772C240.205 111.772 238.383 112.198 236.925 113.048C235.467 113.858 234.677 115.417 234.555 117.726H229.392C229.473 115.782 229.878 114.142 230.607 112.805C231.336 111.469 232.308 110.395 233.523 109.585C234.738 108.735 236.115 108.127 237.654 107.763C239.233 107.398 240.914 107.216 242.696 107.216C244.114 107.216 245.511 107.317 246.888 107.52C248.305 107.722 249.581 108.147 250.715 108.795C251.849 109.403 252.76 110.274 253.449 111.408C254.137 112.542 254.482 114.02 254.482 115.843V132.002C254.482 133.217 254.542 134.108 254.664 134.675C254.826 135.242 255.312 135.526 256.122 135.526C256.567 135.526 257.094 135.424 257.701 135.222V139.231ZM249.318 123.133C248.67 123.619 247.819 123.983 246.766 124.226C245.713 124.429 244.6 124.611 243.425 124.773C242.291 124.894 241.137 125.056 239.962 125.259C238.788 125.421 237.735 125.704 236.803 126.109C235.872 126.514 235.102 127.102 234.495 127.871C233.928 128.6 233.644 129.613 233.644 130.909C233.644 131.759 233.806 132.488 234.13 133.096C234.495 133.663 234.94 134.128 235.467 134.493C236.034 134.857 236.682 135.121 237.411 135.283C238.14 135.445 238.909 135.526 239.719 135.526C241.42 135.526 242.878 135.303 244.093 134.857C245.308 134.371 246.301 133.784 247.07 133.096C247.84 132.367 248.407 131.597 248.771 130.787C249.136 129.937 249.318 129.147 249.318 128.418V123.133ZM273.017 143.545C272.41 145.084 271.802 146.38 271.195 147.433C270.628 148.486 269.98 149.336 269.251 149.984C268.562 150.673 267.772 151.159 266.881 151.442C266.031 151.766 265.039 151.928 263.905 151.928C263.297 151.928 262.69 151.888 262.082 151.807C261.475 151.726 260.887 151.584 260.32 151.381V146.643C260.766 146.845 261.272 147.007 261.839 147.129C262.447 147.291 262.953 147.372 263.358 147.372C264.411 147.372 265.282 147.109 265.97 146.582C266.699 146.096 267.246 145.387 267.61 144.456L269.737 139.171L257.283 107.945H263.115L272.288 133.642H272.41L281.218 107.945H286.686L273.017 143.545Z" fill="#ED0000"/>
</svg>
