<svg width="261" height="261" viewBox="0 0 261 261" fill="none" xmlns="http://www.w3.org/2000/svg">
<g clip-path="url(#clip0_2123_5062)">
<path d="M57 238V135C57 134.724 57.2239 134.5 57.5 134.5H198.5C198.776 134.5 199 134.724 199 135V238C199 238.276 198.776 238.5 198.5 238.5H57.5C57.2239 238.5 57 238.276 57 238Z" fill="white"/>
<path d="M197.186 135.012C197.186 165.35 197.186 195.688 197.186 226.026C197.186 230.277 197.186 234.495 197.186 238.746C197.868 238.064 198.549 237.383 199.198 236.734C183.234 236.734 167.27 236.734 151.338 236.734C125.867 236.734 100.396 236.734 74.925 236.734C69.0521 236.734 63.1467 236.734 57.2737 236.734C57.9551 237.415 58.6365 238.097 59.2854 238.746C59.2854 208.407 59.2854 178.069 59.2854 147.731C59.2854 143.48 59.2854 139.262 59.2854 135.012C58.6365 135.693 57.9551 136.375 57.3061 137.056C73.2702 137.056 89.2343 137.056 105.166 137.056C130.637 137.056 156.108 137.056 181.579 137.056C187.452 137.056 193.358 137.056 199.231 137.056C201.826 137.056 201.859 133 199.231 133C183.266 133 167.302 133 151.371 133C125.9 133 100.429 133 74.9575 133C69.0521 133 63.1791 133 57.3061 133C56.2029 133 55.262 133.941 55.262 135.012C55.262 165.35 55.262 195.688 55.262 226.026C55.262 230.277 55.262 234.495 55.262 238.746C55.262 239.849 56.2029 240.757 57.2737 240.757C73.2378 240.757 89.2018 240.757 105.133 240.757C130.605 240.757 156.076 240.757 181.547 240.757C187.42 240.757 193.325 240.757 199.198 240.757C200.301 240.757 201.21 239.816 201.21 238.746C201.21 208.407 201.21 178.069 201.21 147.731C201.21 143.48 201.21 139.262 201.21 135.012C201.242 132.416 197.186 132.416 197.186 135.012Z" fill="#252525"/>
<path d="M185.732 214.994C185.732 218.726 185.732 222.457 185.732 226.189C186.414 225.507 187.095 224.826 187.744 224.177C156.919 224.177 126.127 224.177 95.3019 224.177C86.9954 224.177 78.6889 224.177 70.3824 224.177C71.0638 224.858 71.7451 225.54 72.3941 226.189C72.3941 202.989 72.3941 179.789 72.3941 156.622C72.3941 153.247 72.3941 149.873 72.3941 146.498C71.7127 147.179 71.0313 147.861 70.3824 148.51C104.647 148.51 138.911 148.51 173.175 148.51C178.042 148.51 182.877 148.51 187.744 148.51C187.063 147.828 186.381 147.147 185.732 146.498C185.732 160.58 185.732 174.662 185.732 188.744C185.732 191.34 189.788 191.373 189.788 188.744C189.788 174.662 189.788 160.58 189.788 146.498C189.788 145.395 188.847 144.454 187.777 144.454C153.512 144.454 119.248 144.454 84.9836 144.454C80.1165 144.454 75.2819 144.454 70.4148 144.454C69.3116 144.454 68.4031 145.395 68.4031 146.498C68.4031 169.698 68.4031 192.898 68.4031 216.065C68.4031 219.44 68.4031 222.814 68.4031 226.189C68.4031 227.292 69.344 228.2 70.4148 228.2C101.759 228.2 133.103 228.2 164.479 228.2C172.267 228.2 180.022 228.2 187.809 228.2C188.912 228.2 189.821 227.259 189.821 226.189C189.821 222.457 189.821 218.726 189.821 214.994C189.788 212.398 185.732 212.398 185.732 214.994Z" fill="#252525"/>
<path d="M39.9468 240.79C45.0086 240.79 50.0704 240.79 55.1322 240.79C55.846 240.79 56.5598 240.79 57.2737 240.79C59.8695 240.79 59.9019 236.734 57.2737 236.734C52.2119 236.734 47.1501 236.734 42.0884 236.734C41.3745 236.734 40.6607 236.734 39.9468 236.734C37.3511 236.734 37.3511 240.79 39.9468 240.79Z" fill="#252525"/>
<path d="M39.9468 230.407C45.0086 230.407 50.0704 230.407 55.1322 230.407C55.846 230.407 56.5598 230.407 57.2737 230.407C59.8695 230.407 59.9019 226.351 57.2737 226.351C52.2119 226.351 47.1501 226.351 42.0884 226.351C41.3745 226.351 40.6607 226.351 39.9468 226.351C37.3511 226.351 37.3511 230.407 39.9468 230.407Z" fill="#252525"/>
<path d="M39.9468 220.024C45.0086 220.024 50.0704 220.024 55.1322 220.024C55.846 220.024 56.5598 220.024 57.2737 220.024C59.8695 220.024 59.9019 215.968 57.2737 215.968C52.2119 215.968 47.1501 215.968 42.0884 215.968C41.3745 215.968 40.6607 215.968 39.9468 215.968C37.3511 215.968 37.3511 220.024 39.9468 220.024Z" fill="#252525"/>
<path d="M39.9468 209.673C45.0086 209.673 50.0704 209.673 55.1322 209.673C55.846 209.673 56.5598 209.673 57.2737 209.673C59.8695 209.673 59.9019 205.617 57.2737 205.617C52.2119 205.617 47.1501 205.617 42.0884 205.617C41.3745 205.617 40.6607 205.617 39.9468 205.617C37.3511 205.617 37.3511 209.673 39.9468 209.673Z" fill="#252525"/>
<path d="M39.9468 199.29C45.0086 199.29 50.0704 199.29 55.1322 199.29C55.846 199.29 56.5598 199.29 57.2737 199.29C59.8695 199.29 59.9019 195.234 57.2737 195.234C52.2119 195.234 47.1501 195.234 42.0884 195.234C41.3745 195.234 40.6607 195.234 39.9468 195.234C37.3511 195.234 37.3511 199.29 39.9468 199.29Z" fill="#252525"/>
<path d="M39.9468 188.907C45.0086 188.907 50.0704 188.907 55.1322 188.907C55.846 188.907 56.5598 188.907 57.2737 188.907C59.8695 188.907 59.9019 184.851 57.2737 184.851C52.2119 184.851 47.1501 184.851 42.0884 184.851C41.3745 184.851 40.6607 184.851 39.9468 184.851C37.3511 184.851 37.3511 188.907 39.9468 188.907Z" fill="#252525"/>
<path d="M39.9468 178.556C45.0086 178.556 50.0704 178.556 55.1322 178.556C55.846 178.556 56.5598 178.556 57.2737 178.556C59.8695 178.556 59.9019 174.5 57.2737 174.5C52.2119 174.5 47.1501 174.5 42.0884 174.5C41.3745 174.5 40.6607 174.5 39.9468 174.5C37.3511 174.5 37.3511 178.556 39.9468 178.556Z" fill="#252525"/>
<path d="M39.9468 168.173C45.0086 168.173 50.0704 168.173 55.1322 168.173C55.846 168.173 56.5598 168.173 57.2737 168.173C59.8695 168.173 59.9019 164.117 57.2737 164.117C52.2119 164.117 47.1501 164.117 42.0884 164.117C41.3745 164.117 40.6607 164.117 39.9468 164.117C37.3511 164.117 37.3511 168.173 39.9468 168.173Z" fill="#252525"/>
<path d="M39.9468 157.79C45.0086 157.79 50.0704 157.79 55.1322 157.79C55.846 157.79 56.5598 157.79 57.2737 157.79C59.8695 157.79 59.9019 153.734 57.2737 153.734C52.2119 153.734 47.1501 153.734 42.0884 153.734C41.3745 153.734 40.6607 153.734 39.9468 153.734C37.3511 153.734 37.3511 157.79 39.9468 157.79Z" fill="#252525"/>
<path d="M39.9468 147.439C45.0086 147.439 50.0704 147.439 55.1322 147.439C55.846 147.439 56.5598 147.439 57.2737 147.439C59.8695 147.439 59.9019 143.383 57.2737 143.383C52.2119 143.383 47.1501 143.383 42.0884 143.383C41.3745 143.383 40.6607 143.383 39.9468 143.383C37.3511 143.383 37.3511 147.439 39.9468 147.439Z" fill="#252525"/>
<path d="M39.9468 137.056C45.0086 137.056 50.0704 137.056 55.1322 137.056C55.846 137.056 56.5598 137.056 57.2737 137.056C59.8695 137.056 59.9019 133 57.2737 133C52.2444 133 47.1826 133 42.1208 133C41.3745 133 40.6607 133 39.9468 133C37.3511 133 37.3511 137.056 39.9468 137.056Z" fill="#252525"/>
<path d="M216.947 133C211.885 133 206.823 133 201.761 133C201.048 133 200.334 133 199.62 133C197.024 133 196.992 137.056 199.62 137.056C204.682 137.056 209.743 137.056 214.805 137.056C215.519 137.056 216.233 137.056 216.947 137.056C219.543 137.056 219.543 133 216.947 133Z" fill="#252525"/>
<path d="M216.947 143.383C211.885 143.383 206.823 143.383 201.761 143.383C201.048 143.383 200.334 143.383 199.62 143.383C197.024 143.383 196.992 147.439 199.62 147.439C204.682 147.439 209.743 147.439 214.805 147.439C215.519 147.439 216.233 147.439 216.947 147.439C219.543 147.439 219.543 143.383 216.947 143.383Z" fill="#252525"/>
<path d="M216.947 153.734C211.885 153.734 206.823 153.734 201.761 153.734C201.048 153.734 200.334 153.734 199.62 153.734C197.024 153.734 196.992 157.79 199.62 157.79C204.682 157.79 209.743 157.79 214.805 157.79C215.519 157.79 216.233 157.79 216.947 157.79C219.543 157.79 219.543 153.734 216.947 153.734Z" fill="#252525"/>
<path d="M216.947 164.117C211.885 164.117 206.823 164.117 201.761 164.117C201.048 164.117 200.334 164.117 199.62 164.117C197.024 164.117 196.992 168.173 199.62 168.173C204.682 168.173 209.743 168.173 214.805 168.173C215.519 168.173 216.233 168.173 216.947 168.173C219.543 168.173 219.543 164.117 216.947 164.117Z" fill="#252525"/>
<path d="M216.947 174.5C211.885 174.5 206.823 174.5 201.761 174.5C201.048 174.5 200.334 174.5 199.62 174.5C197.024 174.5 196.992 178.556 199.62 178.556C204.682 178.556 209.743 178.556 214.805 178.556C215.519 178.556 216.233 178.556 216.947 178.556C219.543 178.556 219.543 174.5 216.947 174.5Z" fill="#252525"/>
<path d="M216.947 184.851C211.885 184.851 206.823 184.851 201.761 184.851C201.048 184.851 200.334 184.851 199.62 184.851C197.024 184.851 196.992 188.907 199.62 188.907C204.682 188.907 209.743 188.907 214.805 188.907C215.519 188.907 216.233 188.907 216.947 188.907C219.543 188.907 219.543 184.851 216.947 184.851Z" fill="#252525"/>
<path d="M216.947 195.234C211.885 195.234 206.823 195.234 201.761 195.234C201.048 195.234 200.334 195.234 199.62 195.234C197.024 195.234 196.992 199.29 199.62 199.29C204.682 199.29 209.743 199.29 214.805 199.29C215.519 199.29 216.233 199.29 216.947 199.29C219.543 199.29 219.543 195.234 216.947 195.234Z" fill="#252525"/>
<path d="M216.947 205.617C211.885 205.617 206.823 205.617 201.761 205.617C201.048 205.617 200.334 205.617 199.62 205.617C197.024 205.617 196.992 209.673 199.62 209.673C204.682 209.673 209.743 209.673 214.805 209.673C215.519 209.673 216.233 209.673 216.947 209.673C219.543 209.673 219.543 205.617 216.947 205.617Z" fill="#252525"/>
<path d="M216.947 215.968C211.885 215.968 206.823 215.968 201.761 215.968C201.048 215.968 200.334 215.968 199.62 215.968C197.024 215.968 196.992 220.024 199.62 220.024C204.682 220.024 209.743 220.024 214.805 220.024C215.519 220.024 216.233 220.024 216.947 220.024C219.543 220.024 219.543 215.968 216.947 215.968Z" fill="#252525"/>
<path d="M216.947 226.351C211.885 226.351 206.823 226.351 201.761 226.351C201.048 226.351 200.334 226.351 199.62 226.351C197.024 226.351 196.992 230.407 199.62 230.407C204.682 230.407 209.743 230.407 214.805 230.407C215.519 230.407 216.233 230.407 216.947 230.407C219.543 230.407 219.543 226.351 216.947 226.351Z" fill="#252525"/>
<path d="M216.947 236.734C211.885 236.734 206.823 236.734 201.761 236.734C201.048 236.734 200.334 236.734 199.62 236.734C197.024 236.734 196.992 240.79 199.62 240.79C204.682 240.79 209.743 240.79 214.805 240.79C215.519 240.79 216.233 240.79 216.947 240.79C219.543 240.79 219.543 236.734 216.947 236.734Z" fill="#252525"/>
</g>
<path d="M89.9163 31.4386H81.7365C81.7732 30.8878 81.8926 30.3737 82.0945 29.8963C82.2965 29.4005 82.5719 28.969 82.9208 28.6018C83.2696 28.2346 83.6828 27.95 84.1601 27.748C84.6559 27.5277 85.2067 27.4175 85.8126 27.4175C86.4002 27.4175 86.9326 27.5277 87.41 27.748C87.9058 27.95 88.3281 28.2346 88.6769 28.6018C89.0442 28.9507 89.3288 29.373 89.5307 29.8687C89.7511 30.3645 89.8796 30.8878 89.9163 31.4386ZM92.1747 35.4046H89.8612C89.6593 36.341 89.237 37.0387 88.5943 37.4977C87.97 37.9568 87.1622 38.1863 86.1707 38.1863C85.3995 38.1863 84.7293 38.0577 84.1601 37.8007C83.5909 37.5436 83.1227 37.204 82.7555 36.7817C82.3883 36.341 82.1221 35.8452 81.9568 35.2944C81.7916 34.7252 81.7181 34.1285 81.7365 33.5042H92.395C92.4318 32.6412 92.3491 31.7324 92.1472 30.7776C91.9636 29.8228 91.6147 28.9415 91.1006 28.1336C90.6049 27.3257 89.9347 26.6647 89.0901 26.1506C88.2638 25.6182 87.2172 25.3519 85.9503 25.3519C84.9772 25.3519 84.0775 25.5355 83.2513 25.9028C82.4434 26.27 81.7365 26.7841 81.1306 27.4451C80.543 28.1061 80.084 28.8864 79.7535 29.7861C79.423 30.6858 79.2577 31.6773 79.2577 32.7606C79.2945 33.8439 79.4505 34.8446 79.726 35.7626C80.0197 36.6807 80.4512 37.4702 81.0204 38.1312C81.5896 38.7922 82.2873 39.3063 83.1136 39.6735C83.9582 40.0407 84.9497 40.2243 86.088 40.2243C87.7038 40.2243 89.0442 39.8204 90.1091 39.0125C91.174 38.2046 91.8626 37.002 92.1747 35.4046ZM98.65 32.4301L93.3069 39.9214H96.1437L100.11 34.0275L104.076 39.9214H107.078L101.569 32.2373L106.472 25.6824H103.663L100.11 30.6674L96.6945 25.6824H93.6925L98.65 32.4301ZM112.326 25.6824V21.4135H109.985V25.6824H107.562V27.748H109.985V36.8092C109.985 37.4702 110.05 38.0027 110.178 38.4066C110.307 38.8105 110.5 39.1227 110.757 39.343C111.032 39.5633 111.381 39.7194 111.803 39.8112C112.244 39.8847 112.767 39.9214 113.373 39.9214H115.163V37.8558H114.089C113.722 37.8558 113.419 37.8466 113.18 37.8282C112.96 37.7915 112.786 37.7272 112.657 37.6354C112.528 37.5436 112.437 37.4151 112.382 37.2499C112.345 37.0846 112.326 36.8643 112.326 36.5889V27.748H115.163V25.6824H112.326ZM117.681 25.6824V39.9214H120.022V33.5868C120.022 32.6688 120.114 31.8609 120.298 31.1632C120.481 30.4471 120.775 29.8412 121.179 29.3454C121.583 28.8497 122.116 28.4733 122.777 28.2162C123.438 27.9592 124.236 27.8307 125.173 27.8307V25.3519C123.906 25.3152 122.859 25.5723 122.033 26.1231C121.207 26.6739 120.509 27.5277 119.94 28.6845H119.885V25.6824H117.681ZM139.55 39.8663C139.146 40.105 138.586 40.2243 137.87 40.2243C137.264 40.2243 136.777 40.0591 136.41 39.7286C136.061 39.3797 135.887 38.8197 135.887 38.0486C135.244 38.8197 134.491 39.3797 133.628 39.7286C132.784 40.0591 131.865 40.2243 130.874 40.2243C130.231 40.2243 129.616 40.1509 129.029 40.004C128.46 39.8571 127.964 39.6276 127.541 39.3155C127.119 39.0033 126.779 38.5994 126.522 38.1036C126.284 37.5895 126.164 36.9744 126.164 36.2584C126.164 35.4505 126.302 34.7895 126.577 34.2754C126.853 33.7613 127.211 33.3481 127.652 33.036C128.111 32.7055 128.625 32.4576 129.194 32.2924C129.781 32.1271 130.378 31.9894 130.984 31.8793C131.627 31.7507 132.233 31.6589 132.802 31.6039C133.389 31.5304 133.904 31.4386 134.344 31.3284C134.785 31.1999 135.134 31.0255 135.391 30.8051C135.648 30.5665 135.776 30.2268 135.776 29.7861C135.776 29.272 135.675 28.8589 135.473 28.5467C135.29 28.2346 135.042 27.9959 134.73 27.8307C134.436 27.6654 134.096 27.5552 133.711 27.5002C133.344 27.4451 132.976 27.4175 132.609 27.4175C131.618 27.4175 130.791 27.6103 130.13 27.9959C129.469 28.3631 129.111 29.07 129.056 30.1166H126.715C126.752 29.2353 126.936 28.4917 127.266 27.8857C127.597 27.2798 128.037 26.7933 128.588 26.426C129.139 26.0405 129.763 25.7651 130.461 25.5998C131.177 25.4346 131.939 25.3519 132.747 25.3519C133.389 25.3519 134.023 25.3978 134.647 25.4896C135.29 25.5814 135.868 25.7742 136.382 26.068C136.896 26.3434 137.31 26.7382 137.622 27.2523C137.934 27.7664 138.09 28.4366 138.09 29.2628V36.5889C138.09 37.1397 138.117 37.5436 138.172 37.8007C138.246 38.0577 138.466 38.1863 138.833 38.1863C139.035 38.1863 139.274 38.1404 139.55 38.0486V39.8663ZM135.749 32.5678C135.455 32.7881 135.069 32.9534 134.592 33.0636C134.115 33.1554 133.61 33.238 133.077 33.3114C132.563 33.3665 132.04 33.44 131.507 33.5318C130.975 33.6052 130.498 33.7337 130.075 33.9173C129.653 34.1009 129.304 34.3672 129.029 34.716C128.772 35.0465 128.643 35.5056 128.643 36.0931C128.643 36.4787 128.717 36.8092 128.863 37.0846C129.029 37.3417 129.231 37.5528 129.469 37.7181C129.726 37.8833 130.02 38.0027 130.351 38.0761C130.681 38.1495 131.03 38.1863 131.397 38.1863C132.168 38.1863 132.829 38.0853 133.38 37.8833C133.931 37.663 134.381 37.3967 134.73 37.0846C135.079 36.7541 135.336 36.4053 135.501 36.038C135.666 35.6525 135.749 35.2944 135.749 34.9639V32.5678Z" fill="#ED0000"/>
<path d="M76.5184 63.455H85.7455C85.7455 62.1885 85.8586 60.9221 86.0848 59.6556C86.3562 58.3439 86.7859 57.1679 87.3739 56.1276C87.9619 55.0421 88.7308 54.1827 89.6806 53.5494C90.6757 52.871 91.8743 52.5317 93.2765 52.5317C95.3571 52.5317 97.0533 53.1876 98.365 54.4993C99.7219 55.7658 100.4 57.5524 100.4 59.8591C100.4 61.3065 100.061 62.5956 99.3827 63.7264C98.7494 64.8572 97.9353 65.8749 96.9402 66.7795C95.9903 67.6841 94.9274 68.5209 93.7514 69.2898C92.5754 70.0135 91.4673 70.7372 90.4269 71.4609C88.3916 72.863 86.4466 74.2426 84.5922 75.5995C82.7829 76.9564 81.1998 78.449 79.8429 80.0774C78.486 81.6604 77.4004 83.4697 76.5863 85.5051C75.8174 87.5405 75.4329 89.9377 75.4329 92.6968H110.306V84.4195H87.8488C89.0248 82.7912 90.3817 81.3664 91.9196 80.1452C93.4574 78.924 95.0405 77.7932 96.6688 76.7529C98.2971 75.6673 99.9028 74.5818 101.486 73.4963C103.114 72.4107 104.562 71.2121 105.828 69.9004C107.095 68.5435 108.112 67.0056 108.881 65.2869C109.65 63.5681 110.035 61.5101 110.035 59.1128C110.035 56.8061 109.582 54.7254 108.678 52.871C107.818 51.0165 106.642 49.456 105.15 48.1896C103.657 46.9231 101.916 45.9506 99.9254 45.2722C97.9805 44.5937 95.9225 44.2545 93.7514 44.2545C90.9019 44.2545 88.3689 44.752 86.1526 45.7471C83.9815 46.697 82.1723 48.0539 80.7249 49.8179C79.2775 51.5367 78.192 53.5721 77.4683 55.9241C76.7446 58.2308 76.428 60.7412 76.5184 63.455ZM121.767 68.747C121.767 67.9329 121.767 66.9604 121.767 65.8296C121.812 64.6536 121.903 63.455 122.038 62.2338C122.174 61.0125 122.4 59.8139 122.717 58.6379C123.033 57.4167 123.463 56.3311 124.006 55.3813C124.594 54.4314 125.317 53.6625 126.177 53.0745C127.081 52.4865 128.19 52.1925 129.501 52.1925C130.813 52.1925 131.921 52.4865 132.826 53.0745C133.73 53.6625 134.477 54.4314 135.065 55.3813C135.653 56.3311 136.082 57.4167 136.354 58.6379C136.67 59.8139 136.897 61.0125 137.032 62.2338C137.213 63.455 137.304 64.6536 137.304 65.8296C137.349 66.9604 137.372 67.9329 137.372 68.747C137.372 70.1039 137.326 71.7549 137.236 73.6998C137.145 75.5995 136.851 77.454 136.354 79.2632C135.902 81.0272 135.133 82.5424 134.047 83.8089C133.007 85.0754 131.491 85.7086 129.501 85.7086C127.556 85.7086 126.064 85.0754 125.023 83.8089C123.983 82.5424 123.214 81.0272 122.717 79.2632C122.264 77.454 121.993 75.5995 121.903 73.6998C121.812 71.7549 121.767 70.1039 121.767 68.747ZM112.133 68.747C112.133 73.4963 112.585 77.4766 113.49 80.688C114.439 83.8541 115.706 86.3871 117.289 88.2868C118.872 90.1865 120.704 91.5434 122.785 92.3575C124.91 93.1717 127.149 93.5788 129.501 93.5788C131.899 93.5788 134.138 93.1717 136.218 92.3575C138.344 91.5434 140.198 90.1865 141.782 88.2868C143.41 86.3871 144.676 83.8541 145.581 80.688C146.531 77.4766 147.006 73.4963 147.006 68.747C147.006 64.1335 146.531 60.2662 145.581 57.1453C144.676 53.9791 143.41 51.4462 141.782 49.5465C140.198 47.6468 138.344 46.2899 136.218 45.4757C134.138 44.6616 131.899 44.2545 129.501 44.2545C127.149 44.2545 124.91 44.6616 122.785 45.4757C120.704 46.2899 118.872 47.6468 117.289 49.5465C115.706 51.4462 114.439 53.9791 113.49 57.1453C112.585 60.2662 112.133 64.1335 112.133 68.747Z" fill="#ED0000"/>
<path d="M165.816 63.3393C165.816 63.0564 165.824 62.7401 165.841 62.3905C165.874 62.0409 165.949 61.7163 166.066 61.4166C166.182 61.117 166.349 60.8673 166.565 60.6675C166.798 60.4678 167.115 60.3679 167.514 60.3679C167.88 60.3679 168.163 60.4844 168.363 60.7175C168.58 60.9339 168.738 61.2002 168.838 61.5165C168.937 61.8162 168.996 62.1408 169.012 62.4904C169.046 62.8233 169.062 63.1146 169.062 63.3643C169.062 63.6307 169.046 63.9386 169.012 64.2882C168.996 64.6211 168.929 64.9458 168.813 65.262C168.713 65.5617 168.546 65.8197 168.313 66.0361C168.097 66.2525 167.797 66.3607 167.414 66.3607C167.015 66.3607 166.707 66.2525 166.49 66.0361C166.274 65.8197 166.116 65.5617 166.016 65.262C165.916 64.9458 165.858 64.6128 165.841 64.2632C165.824 63.9137 165.816 63.6057 165.816 63.3393ZM163.269 63.3144C163.269 63.9969 163.336 64.6378 163.469 65.2371C163.619 65.8364 163.852 66.3607 164.168 66.8102C164.501 67.243 164.926 67.5843 165.442 67.834C165.974 68.0837 166.624 68.2085 167.389 68.2085C168.122 68.2085 168.754 68.092 169.287 67.8589C169.82 67.6092 170.253 67.268 170.585 66.8352C170.935 66.4024 171.193 65.8946 171.36 65.312C171.526 64.7294 171.609 64.0968 171.609 63.4143C171.609 62.7317 171.543 62.0908 171.409 61.4916C171.276 60.8923 171.043 60.3762 170.71 59.9434C170.394 59.4939 169.978 59.1444 169.462 58.8947C168.946 58.6283 168.297 58.4951 167.514 58.4951C166.782 58.4951 166.149 58.62 165.616 58.8697C165.084 59.1194 164.643 59.4607 164.293 59.8935C163.943 60.3263 163.685 60.834 163.519 61.4166C163.352 61.9993 163.269 62.6319 163.269 63.3144ZM165.192 49.8555L154.854 68.4083H157.027L167.314 49.8555H165.192ZM152.932 55.0493C152.932 54.7663 152.94 54.4417 152.957 54.0754C152.99 53.7092 153.065 53.3679 153.181 53.0517C153.298 52.7354 153.464 52.469 153.681 52.2526C153.914 52.0362 154.23 51.928 154.63 51.928C154.996 51.928 155.279 52.0445 155.479 52.2776C155.695 52.5106 155.853 52.7936 155.953 53.1266C156.053 53.4595 156.111 53.8091 156.128 54.1753C156.161 54.5249 156.178 54.8245 156.178 55.0742C156.178 55.3406 156.161 55.6402 156.128 55.9732C156.111 56.2894 156.045 56.5974 155.928 56.8971C155.828 57.18 155.662 57.4214 155.429 57.6212C155.212 57.8209 154.913 57.9208 154.53 57.9208C154.13 57.9208 153.822 57.8209 153.606 57.6212C153.389 57.4214 153.231 57.18 153.131 56.8971C153.031 56.5974 152.973 56.2811 152.957 55.9482C152.94 55.6153 152.932 55.3156 152.932 55.0493ZM150.385 54.9993C150.385 55.6818 150.451 56.3227 150.584 56.922C150.734 57.5047 150.967 58.0124 151.284 58.4452C151.616 58.8614 152.041 59.1943 152.557 59.444C153.09 59.6771 153.739 59.7936 154.505 59.7936C155.237 59.7936 155.87 59.6771 156.402 59.444C156.935 59.211 157.368 58.8863 157.701 58.4702C158.05 58.054 158.308 57.5629 158.475 56.9969C158.641 56.4143 158.725 55.7817 158.725 55.0992C158.725 54.4167 158.658 53.7675 158.525 53.1515C158.392 52.5356 158.159 52.0029 157.826 51.5534C157.509 51.0873 157.093 50.7211 156.577 50.4548C156.061 50.1884 155.412 50.0552 154.63 50.0552C153.897 50.0552 153.264 50.1884 152.732 50.4548C152.199 50.7045 151.758 51.054 151.408 51.5035C151.059 51.953 150.801 52.4773 150.634 53.0766C150.468 53.6759 150.385 54.3168 150.385 54.9993Z" fill="#ED0000"/>
<path d="M153.326 83.1197C153.326 81.9691 153.473 80.9531 153.767 80.0718C154.085 79.166 154.514 78.4071 155.052 77.795C155.591 77.183 156.215 76.7178 156.925 76.3996C157.66 76.0813 158.431 75.9222 159.239 75.9222C160.047 75.9222 160.806 76.0813 161.516 76.3996C162.25 76.7178 162.886 77.183 163.425 77.795C163.964 78.4071 164.38 79.166 164.674 80.0718C164.992 80.9531 165.151 81.9691 165.151 83.1197C165.151 84.2703 164.992 85.2986 164.674 86.2044C164.38 87.0857 163.964 87.8324 163.425 88.4444C162.886 89.032 162.25 89.4849 161.516 89.8031C160.806 90.1214 160.047 90.2805 159.239 90.2805C158.431 90.2805 157.66 90.1214 156.925 89.8031C156.215 89.4849 155.591 89.032 155.052 88.4444C154.514 87.8324 154.085 87.0857 153.767 86.2044C153.473 85.2986 153.326 84.2703 153.326 83.1197ZM150.022 83.1197C150.022 84.5152 150.217 85.8127 150.609 87.0122C151.001 88.2118 151.588 89.2645 152.372 90.1703C153.155 91.0517 154.122 91.7494 155.273 92.2635C156.423 92.7531 157.745 92.9979 159.239 92.9979C160.757 92.9979 162.079 92.7531 163.205 92.2635C164.355 91.7494 165.322 91.0517 166.106 90.1703C166.889 89.2645 167.477 88.2118 167.868 87.0122C168.26 85.8127 168.456 84.5152 168.456 83.1197C168.456 81.7243 168.26 80.4268 167.868 79.2272C167.477 78.0031 166.889 76.9504 166.106 76.0691C165.322 75.1633 164.355 74.4533 163.205 73.9392C162.079 73.4251 160.757 73.1681 159.239 73.1681C157.745 73.1681 156.423 73.4251 155.273 73.9392C154.122 74.4533 153.155 75.1633 152.372 76.0691C151.588 76.9504 151.001 78.0031 150.609 79.2272C150.217 80.4268 150.022 81.7243 150.022 83.1197ZM183.74 76.3629H176.543V92.594H173.421V76.3629H170.227V73.6087H173.421V70.7811C173.421 69.2388 173.862 68.0759 174.743 67.2925C175.649 66.4846 176.959 66.0807 178.673 66.0807C178.966 66.0807 179.297 66.1052 179.664 66.1541C180.056 66.2031 180.399 66.2766 180.692 66.3745V69.0919C180.423 68.994 180.129 68.9328 179.811 68.9083C179.493 68.8593 179.199 68.8349 178.93 68.8349C178.171 68.8349 177.583 68.9817 177.167 69.2755C176.751 69.5693 176.543 70.1324 176.543 70.9647V73.6087H183.74V70.7811C183.74 69.2388 184.181 68.0759 185.062 67.2925C185.968 66.4846 187.278 66.0807 188.992 66.0807C189.285 66.0807 189.616 66.1052 189.983 66.1541C190.375 66.2031 190.718 66.2766 191.011 66.3745V69.0919C190.742 68.994 190.448 68.9328 190.13 68.9083C189.812 68.8593 189.518 68.8349 189.249 68.8349C188.49 68.8349 187.902 68.9817 187.486 69.2755C187.07 69.5693 186.862 70.1324 186.862 70.9647V73.6087H190.534V76.3629H186.862V92.594H183.74V76.3629Z" fill="#ED0000"/>
<path d="M199.252 67.0926V65.1175H198.326V67.0926L196.473 66.3934L196.159 67.2324L198.011 67.8966L196.875 69.4872L197.662 70.0291L198.798 68.3511L200.004 70.0291L200.721 69.4872L199.567 67.8966L201.472 67.2324L201.123 66.3934L199.252 67.0926Z" fill="#ED0000"/>
<defs>
<clipPath id="clip0_2123_5062">
<rect width="180.894" height="107.79" fill="white" transform="translate(38 133)"/>
</clipPath>
</defs>
</svg>
