<svg width="261" height="261" viewBox="0 0 261 261" fill="none" xmlns="http://www.w3.org/2000/svg">
<path d="M199.252 67.0926V65.1174H198.326V67.0926L196.473 66.3934L196.159 67.2324L198.011 67.8966L196.875 69.4872L197.662 70.0291L198.798 68.3511L200.004 70.0291L200.721 69.4872L199.567 67.8966L201.472 67.2324L201.123 66.3934L199.252 67.0926Z" fill="#ED0000"/>
<path d="M153.326 83.1198C153.326 81.9692 153.473 80.9532 153.767 80.0719C154.085 79.1661 154.514 78.4072 155.052 77.7951C155.591 77.1831 156.215 76.718 156.925 76.3997C157.66 76.0814 158.431 75.9223 159.239 75.9223C160.047 75.9223 160.806 76.0814 161.516 76.3997C162.25 76.718 162.886 77.1831 163.425 77.7951C163.964 78.4072 164.38 79.1661 164.674 80.0719C164.992 80.9532 165.151 81.9692 165.151 83.1198C165.151 84.2704 164.992 85.2987 164.674 86.2045C164.38 87.0858 163.964 87.8325 163.425 88.4445C162.886 89.0321 162.25 89.485 161.516 89.8032C160.806 90.1215 160.047 90.2806 159.239 90.2806C158.431 90.2806 157.66 90.1215 156.925 89.8032C156.215 89.485 155.591 89.0321 155.052 88.4445C154.514 87.8325 154.085 87.0858 153.767 86.2045C153.473 85.2987 153.326 84.2704 153.326 83.1198ZM150.022 83.1198C150.022 84.5153 150.217 85.8128 150.609 87.0124C151.001 88.2119 151.588 89.2646 152.372 90.1705C153.155 91.0518 154.122 91.7495 155.273 92.2636C156.423 92.7532 157.745 92.998 159.239 92.998C160.757 92.998 162.079 92.7532 163.205 92.2636C164.355 91.7495 165.322 91.0518 166.106 90.1705C166.889 89.2646 167.477 88.2119 167.868 87.0124C168.26 85.8128 168.456 84.5153 168.456 83.1198C168.456 81.7244 168.26 80.4269 167.868 79.2273C167.477 78.0032 166.889 76.9505 166.106 76.0692C165.322 75.1634 164.355 74.4534 163.205 73.9393C162.079 73.4252 160.757 73.1682 159.239 73.1682C157.745 73.1682 156.423 73.4252 155.273 73.9393C154.122 74.4534 153.155 75.1634 152.372 76.0692C151.588 76.9505 151.001 78.0032 150.609 79.2273C150.217 80.4269 150.022 81.7244 150.022 83.1198Z" fill="#ED0000"/>
<path d="M183.74 76.363H176.543V92.5941H173.421V76.363H170.227V73.6088H173.421V70.7812C173.421 69.2389 173.862 68.076 174.743 67.2926C175.649 66.4848 176.959 66.0808 178.673 66.0808C178.966 66.0808 179.297 66.1053 179.664 66.1543C180.056 66.2032 180.399 66.2767 180.692 66.3746V69.092C180.423 68.9941 180.129 68.9329 179.811 68.9084C179.493 68.8594 179.199 68.835 178.93 68.835C178.171 68.835 177.583 68.9819 177.167 69.2756C176.751 69.5694 176.543 70.1325 176.543 70.9648V73.6088H183.74V70.7812C183.74 69.2389 184.181 68.076 185.062 67.2926C185.968 66.4848 187.278 66.0808 188.992 66.0808C189.285 66.0808 189.616 66.1053 189.983 66.1543C190.375 66.2032 190.718 66.2767 191.011 66.3746V69.092C190.742 68.9941 190.448 68.9329 190.13 68.9084C189.812 68.8594 189.518 68.835 189.249 68.835C188.49 68.835 187.902 68.9819 187.486 69.2756C187.07 69.5694 186.862 70.1325 186.862 70.9648V73.6088H190.534V76.363H186.862V92.5941H183.74V76.363Z" fill="#ED0000"/>
<path d="M165.816 63.3393C165.816 63.0563 165.824 62.7401 165.841 62.3905C165.874 62.0409 165.949 61.7163 166.066 61.4166C166.182 61.117 166.349 60.8673 166.565 60.6675C166.798 60.4678 167.115 60.3679 167.514 60.3679C167.88 60.3679 168.163 60.4844 168.363 60.7175C168.58 60.9339 168.738 61.2002 168.838 61.5165C168.937 61.8162 168.996 62.1408 169.012 62.4904C169.046 62.8233 169.062 63.1146 169.062 63.3643C169.062 63.6307 169.046 63.9386 169.012 64.2882C168.996 64.6211 168.929 64.9458 168.813 65.262C168.713 65.5617 168.546 65.8197 168.313 66.0361C168.097 66.2525 167.797 66.3607 167.414 66.3607C167.015 66.3607 166.707 66.2525 166.49 66.0361C166.274 65.8197 166.116 65.5617 166.016 65.262C165.916 64.9458 165.858 64.6128 165.841 64.2632C165.824 63.9137 165.816 63.6057 165.816 63.3393ZM163.269 63.3144C163.269 63.9969 163.336 64.6378 163.469 65.2371C163.619 65.8364 163.852 66.3607 164.168 66.8102C164.501 67.243 164.926 67.5843 165.442 67.834C165.974 68.0837 166.624 68.2085 167.389 68.2085C168.122 68.2085 168.754 68.092 169.287 67.8589C169.82 67.6092 170.253 67.268 170.585 66.8352C170.935 66.4023 171.193 65.8946 171.36 65.312C171.526 64.7293 171.609 64.0968 171.609 63.4143C171.609 62.7317 171.543 62.0908 171.409 61.4916C171.276 60.8923 171.043 60.3762 170.71 59.9434C170.394 59.4939 169.978 59.1444 169.462 58.8947C168.946 58.6283 168.297 58.4951 167.514 58.4951C166.782 58.4951 166.149 58.62 165.616 58.8697C165.084 59.1194 164.643 59.4606 164.293 59.8935C163.943 60.3263 163.685 60.834 163.519 61.4166C163.352 61.9993 163.269 62.6319 163.269 63.3144ZM165.192 49.8555L154.854 68.4083H157.027L167.314 49.8555H165.192ZM152.932 55.0493C152.932 54.7663 152.94 54.4417 152.957 54.0754C152.99 53.7092 153.065 53.3679 153.181 53.0516C153.298 52.7354 153.464 52.469 153.681 52.2526C153.914 52.0362 154.23 51.928 154.63 51.928C154.996 51.928 155.279 52.0445 155.479 52.2776C155.695 52.5106 155.853 52.7936 155.953 53.1266C156.053 53.4595 156.111 53.8091 156.128 54.1753C156.161 54.5249 156.178 54.8245 156.178 55.0742C156.178 55.3406 156.161 55.6402 156.128 55.9732C156.111 56.2894 156.045 56.5974 155.928 56.897C155.828 57.18 155.662 57.4214 155.429 57.6212C155.212 57.8209 154.913 57.9208 154.53 57.9208C154.13 57.9208 153.822 57.8209 153.606 57.6212C153.389 57.4214 153.231 57.18 153.131 56.897C153.031 56.5974 152.973 56.2811 152.957 55.9482C152.94 55.6152 152.932 55.3156 152.932 55.0493ZM150.385 54.9993C150.385 55.6818 150.451 56.3227 150.584 56.922C150.734 57.5047 150.967 58.0124 151.284 58.4452C151.616 58.8614 152.041 59.1943 152.557 59.444C153.09 59.6771 153.739 59.7936 154.505 59.7936C155.237 59.7936 155.87 59.6771 156.402 59.444C156.935 59.2109 157.368 58.8863 157.701 58.4702C158.05 58.054 158.308 57.5629 158.475 56.9969C158.641 56.4143 158.725 55.7817 158.725 55.0992C158.725 54.4167 158.658 53.7675 158.525 53.1515C158.392 52.5356 158.159 52.0029 157.826 51.5534C157.509 51.0873 157.093 50.7211 156.577 50.4548C156.061 50.1884 155.412 50.0552 154.63 50.0552C153.897 50.0552 153.265 50.1884 152.732 50.4548C152.199 50.7045 151.758 51.054 151.408 51.5035C151.059 51.953 150.801 52.4773 150.634 53.0766C150.468 53.6759 150.385 54.3168 150.385 54.9993Z" fill="#ED0000"/>
<path d="M101.481 92.6969V45.2045H93.8143C93.543 47.0137 92.9776 48.5289 92.1182 49.7502C91.2588 50.9714 90.1959 51.9665 88.9294 52.7354C87.7082 53.4591 86.306 53.9793 84.7229 54.2959C83.1851 54.5673 81.5794 54.6803 79.9058 54.6351V61.8947H91.8468V92.6969H101.481Z" fill="#ED0000"/>
<path d="M143.754 53.1425V45.2045H117.226L112.545 71.461H121.229C122.179 70.1493 123.197 69.1995 124.282 68.6115C125.368 67.9782 126.77 67.6616 128.489 67.6616C129.8 67.6616 130.954 67.8878 131.949 68.3401C132.944 68.7924 133.803 69.4256 134.527 70.2398C135.251 71.0539 135.793 72.0038 136.155 73.0893C136.517 74.1749 136.698 75.3282 136.698 76.5495C136.698 77.7255 136.494 78.8789 136.087 80.0096C135.726 81.0952 135.183 82.0676 134.459 82.927C133.781 83.7412 132.921 84.4197 131.881 84.9624C130.886 85.46 129.755 85.7087 128.489 85.7087C126.317 85.7087 124.531 85.0755 123.129 83.809C121.727 82.4973 120.912 80.756 120.686 78.5849H111.052C111.097 81.0726 111.595 83.2663 112.545 85.166C113.54 87.0204 114.851 88.5809 116.48 89.8474C118.108 91.1138 119.963 92.0637 122.043 92.6969C124.169 93.2849 126.385 93.5789 128.692 93.5789C131.089 93.6241 133.351 93.2397 135.477 92.4255C137.603 91.5661 139.457 90.3675 141.04 88.8297C142.668 87.2918 143.958 85.4826 144.907 83.402C145.857 81.2761 146.332 78.9919 146.332 76.5495C146.332 74.3332 145.993 72.2525 145.314 70.3076C144.681 68.3175 143.731 66.5987 142.465 65.1513C141.244 63.7039 139.728 62.5505 137.919 61.6911C136.11 60.8317 134.029 60.402 131.677 60.402C129.778 60.402 128.081 60.696 126.589 61.284C125.096 61.8268 123.694 62.7541 122.382 64.0658L122.247 63.9301L124.146 53.1425H143.754Z" fill="#ED0000"/>
<path d="M89.9163 31.4387H81.7365C81.7732 30.8879 81.8926 30.3737 82.0945 29.8964C82.2965 29.4006 82.5719 28.9691 82.9208 28.6019C83.2696 28.2347 83.6828 27.9501 84.1601 27.7481C84.6559 27.5278 85.2067 27.4176 85.8126 27.4176C86.4002 27.4176 86.9327 27.5278 87.41 27.7481C87.9058 27.9501 88.3281 28.2347 88.6769 28.6019C89.0442 28.9508 89.3288 29.3731 89.5307 29.8688C89.7511 30.3646 89.8796 30.8879 89.9163 31.4387ZM92.1747 35.4047H89.8612C89.6593 36.3411 89.237 37.0388 88.5943 37.4978C87.97 37.9568 87.1622 38.1864 86.1707 38.1864C85.3995 38.1864 84.7293 38.0578 84.1601 37.8008C83.5909 37.5437 83.1227 37.204 82.7555 36.7817C82.3883 36.3411 82.1221 35.8453 81.9568 35.2945C81.7916 34.7253 81.7181 34.1286 81.7365 33.5043H92.3951C92.4318 32.6413 92.3491 31.7325 92.1472 30.7777C91.9636 29.8229 91.6147 28.9416 91.1006 28.1337C90.6049 27.3258 89.9347 26.6648 89.0901 26.1507C88.2638 25.6182 87.2172 25.352 85.9503 25.352C84.9772 25.352 84.0775 25.5356 83.2513 25.9028C82.4434 26.2701 81.7365 26.7842 81.1306 27.4452C80.543 28.1062 80.084 28.8865 79.7535 29.7862C79.423 30.6859 79.2578 31.6774 79.2578 32.7607C79.2945 33.844 79.4505 34.8447 79.726 35.7627C80.0197 36.6808 80.4512 37.4703 81.0204 38.1313C81.5896 38.7923 82.2873 39.3064 83.1136 39.6736C83.9582 40.0408 84.9497 40.2244 86.088 40.2244C87.7038 40.2244 89.0442 39.8205 90.1091 39.0126C91.174 38.2047 91.8626 37.0021 92.1747 35.4047Z" fill="#ED0000"/>
<path d="M98.65 32.4302L93.3069 39.9215H96.1437L100.11 34.0276L104.076 39.9215H107.078L101.569 32.2374L106.472 25.6825H103.663L100.11 30.6675L96.6945 25.6825H93.6925L98.65 32.4302Z" fill="#ED0000"/>
<path d="M112.326 25.6825V21.4136H109.985V25.6825H107.562V27.7481H109.985V36.8093C109.985 37.4703 110.05 38.0027 110.178 38.4067C110.307 38.8106 110.5 39.1228 110.757 39.3431C111.032 39.5634 111.381 39.7195 111.803 39.8113C112.244 39.8847 112.767 39.9215 113.373 39.9215H115.163V37.8559H114.089C113.722 37.8559 113.419 37.8467 113.18 37.8283C112.96 37.7916 112.786 37.7273 112.657 37.6355C112.528 37.5437 112.437 37.4152 112.382 37.2499C112.345 37.0847 112.326 36.8644 112.326 36.5889V27.7481H115.163V25.6825H112.326Z" fill="#ED0000"/>
<path d="M117.681 25.6825V39.9215H120.022V33.5869C120.022 32.6689 120.114 31.861 120.298 31.1633C120.481 30.4472 120.775 29.8413 121.179 29.3455C121.583 28.8498 122.116 28.4734 122.777 28.2163C123.438 27.9593 124.236 27.8307 125.173 27.8307V25.352C123.906 25.3153 122.859 25.5723 122.033 26.1232C121.207 26.674 120.509 27.5278 119.94 28.6845H119.885V25.6825H117.681Z" fill="#ED0000"/>
<path d="M139.55 39.8664C139.146 40.1051 138.586 40.2244 137.87 40.2244C137.264 40.2244 136.777 40.0592 136.41 39.7287C136.061 39.3798 135.887 38.8198 135.887 38.0486C135.244 38.8198 134.491 39.3798 133.628 39.7287C132.784 40.0592 131.865 40.2244 130.874 40.2244C130.231 40.2244 129.616 40.151 129.029 40.0041C128.46 39.8572 127.964 39.6277 127.541 39.3156C127.119 39.0034 126.779 38.5995 126.522 38.1037C126.284 37.5896 126.164 36.9745 126.164 36.2584C126.164 35.4506 126.302 34.7896 126.578 34.2755C126.853 33.7614 127.211 33.3482 127.652 33.0361C128.111 32.7056 128.625 32.4577 129.194 32.2925C129.781 32.1272 130.378 31.9895 130.984 31.8793C131.627 31.7508 132.233 31.659 132.802 31.6039C133.389 31.5305 133.904 31.4387 134.344 31.3285C134.785 31.2 135.134 31.0256 135.391 30.8052C135.648 30.5665 135.776 30.2269 135.776 29.7862C135.776 29.2721 135.675 28.859 135.473 28.5468C135.29 28.2347 135.042 27.996 134.73 27.8307C134.436 27.6655 134.096 27.5553 133.711 27.5002C133.344 27.4452 132.976 27.4176 132.609 27.4176C131.618 27.4176 130.791 27.6104 130.13 27.996C129.469 28.3632 129.111 29.0701 129.056 30.1167H126.715C126.752 29.2354 126.936 28.4917 127.266 27.8858C127.597 27.2799 128.037 26.7933 128.588 26.4261C129.139 26.0405 129.763 25.7651 130.461 25.5999C131.177 25.4346 131.939 25.352 132.747 25.352C133.389 25.352 134.023 25.3979 134.647 25.4897C135.29 25.5815 135.868 25.7743 136.382 26.0681C136.896 26.3435 137.31 26.7383 137.622 27.2524C137.934 27.7665 138.09 28.4367 138.09 29.2629V36.5889C138.09 37.1398 138.117 37.5437 138.172 37.8008C138.246 38.0578 138.466 38.1864 138.833 38.1864C139.035 38.1864 139.274 38.1405 139.55 38.0486V39.8664ZM135.749 32.5679C135.455 32.7882 135.069 32.9535 134.592 33.0636C134.115 33.1554 133.61 33.2381 133.077 33.3115C132.563 33.3666 132.04 33.44 131.507 33.5318C130.975 33.6053 130.498 33.7338 130.075 33.9174C129.653 34.101 129.304 34.3673 129.029 34.7161C128.772 35.0466 128.643 35.5056 128.643 36.0932C128.643 36.4788 128.717 36.8093 128.863 37.0847C129.029 37.3417 129.231 37.5529 129.469 37.7181C129.726 37.8834 130.02 38.0027 130.351 38.0762C130.681 38.1496 131.03 38.1864 131.397 38.1864C132.168 38.1864 132.829 38.0854 133.38 37.8834C133.931 37.6631 134.381 37.3968 134.73 37.0847C135.079 36.7542 135.336 36.4053 135.501 36.0381C135.666 35.6525 135.749 35.2945 135.749 34.964V32.5679Z" fill="#ED0000"/>
<g clip-path="url(#clip0_2123_5463)">
<path d="M70.1644 134.6H120.219C121.504 134.601 122.778 134.857 123.963 135.355C125.149 135.852 126.225 136.581 127.126 137.498C128.966 139.357 129.997 141.868 129.995 144.484V203.449C129.995 204.506 129.578 205.521 128.835 206.274C128.467 206.644 128.03 206.938 127.549 207.139C127.068 207.339 126.551 207.443 126.03 207.444H64.3256C63.804 207.444 63.2875 207.341 62.806 207.14C62.3245 206.939 61.8876 206.645 61.5205 206.274C60.7775 205.521 60.3606 204.506 60.36 203.449V144.484C60.3595 143.182 60.6141 141.893 61.1093 140.689C61.5995 139.491 62.3217 138.402 63.2344 137.484C64.1471 136.566 65.2322 135.837 66.4272 135.341C67.6168 134.845 68.8939 134.593 70.1826 134.6H70.1644Z" fill="white" stroke="#231F20" stroke-width="4" stroke-miterlimit="10"/>
<path d="M139.772 134.6H189.836C191.119 134.602 192.388 134.856 193.573 135.35C195.369 136.107 196.902 137.379 197.977 139.006C199.052 140.633 199.621 142.543 199.613 144.493V203.449C199.614 203.973 199.513 204.492 199.313 204.977C199.114 205.462 198.822 205.903 198.452 206.274C198.087 206.645 197.651 206.939 197.171 207.14C196.691 207.341 196.176 207.444 195.656 207.444H133.915C133.394 207.443 132.878 207.34 132.396 207.139C131.915 206.938 131.478 206.644 131.11 206.274C130.367 205.522 129.95 204.507 129.95 203.449V144.484C129.95 143.183 130.207 141.894 130.705 140.693C131.204 139.491 131.935 138.399 132.855 137.48C133.762 136.563 134.843 135.836 136.033 135.342C137.224 134.847 138.501 134.595 139.791 134.6H139.772Z" fill="white" stroke="#231F20" stroke-width="4" stroke-miterlimit="10"/>
<path d="M67.8709 189.496H192.138C193.124 189.498 194.098 189.707 194.998 190.109C195.919 190.527 196.746 191.127 197.429 191.873C198.132 192.639 198.681 193.533 199.046 194.507C199.422 195.5 199.614 196.553 199.613 197.615V212.244C199.615 212.51 199.568 212.773 199.475 213.022C199.378 213.266 199.239 213.492 199.064 213.689C198.894 213.874 198.689 214.023 198.461 214.128C198.234 214.228 197.988 214.281 197.739 214.283H62.3154C62.0696 214.282 61.8268 214.229 61.6027 214.128C61.3718 214.023 61.1638 213.874 60.9905 213.689C60.8154 213.494 60.679 213.268 60.5885 213.022C60.4884 212.775 60.4387 212.511 60.4423 212.244V197.624C60.4276 195.509 61.2032 193.464 62.617 191.892C63.2794 191.15 64.0884 190.555 64.9928 190.142C65.8971 189.73 66.8772 189.51 67.8709 189.496V189.496Z" fill="white" stroke="#231F20" stroke-width="4" stroke-miterlimit="10"/>
<path d="M197.557 214.238H62.4342C61.8228 214.314 61.2653 214.626 60.881 215.108C60.4968 215.59 60.3164 216.203 60.3783 216.816V229.16C60.3138 229.774 60.4931 230.39 60.8776 230.874C61.2621 231.358 61.821 231.671 62.4342 231.747H197.557C198.165 231.669 198.718 231.357 199.101 230.878C199.483 230.398 199.663 229.788 199.603 229.178V216.816C199.666 216.204 199.486 215.592 199.104 215.111C198.722 214.629 198.166 214.316 197.557 214.238V214.238Z" fill="white" stroke="#231F20" stroke-width="4" stroke-miterlimit="10"/>
<path d="M83.7972 154.88C84.1775 154.883 84.5503 154.774 84.8682 154.565C85.1862 154.356 85.4349 154.058 85.583 153.707C85.731 153.357 85.7716 152.97 85.6997 152.597C85.6277 152.223 85.4464 151.879 85.1788 151.609C84.9112 151.338 84.5693 151.154 84.1966 151.078C83.8239 151.002 83.4372 151.039 83.0855 151.184C82.7338 151.329 82.433 151.575 82.2214 151.891C82.0097 152.207 81.8967 152.579 81.8967 152.96C81.8955 153.211 81.9437 153.459 82.0385 153.692C82.1334 153.924 82.2731 154.135 82.4495 154.314C82.626 154.492 82.8359 154.634 83.0671 154.731C83.2984 154.828 83.5464 154.879 83.7972 154.88Z" fill="black"/>
<path d="M105.316 154.88C105.696 154.883 106.069 154.774 106.387 154.565C106.705 154.356 106.953 154.058 107.101 153.707C107.249 153.357 107.29 152.97 107.218 152.597C107.146 152.223 106.965 151.879 106.697 151.609C106.43 151.338 106.088 151.154 105.715 151.078C105.342 151.002 104.956 151.039 104.604 151.184C104.252 151.329 103.951 151.575 103.74 151.891C103.528 152.207 103.415 152.579 103.415 152.96C103.414 153.211 103.462 153.459 103.557 153.692C103.652 153.924 103.791 154.135 103.968 154.314C104.144 154.492 104.354 154.634 104.585 154.731C104.817 154.828 105.065 154.879 105.316 154.88Z" fill="black"/>
<path d="M83.7972 174.053C84.1775 174.057 84.5503 173.947 84.8682 173.739C85.1862 173.53 85.4349 173.231 85.583 172.881C85.731 172.53 85.7716 172.144 85.6997 171.77C85.6277 171.396 85.4464 171.052 85.1788 170.782C84.9112 170.512 84.5693 170.327 84.1966 170.251C83.8239 170.176 83.4372 170.213 83.0855 170.358C82.7338 170.502 82.433 170.748 82.2214 171.065C82.0097 171.381 81.8967 171.753 81.8967 172.133C81.8955 172.384 81.9437 172.633 82.0385 172.865C82.1334 173.097 82.2731 173.309 82.4495 173.487C82.626 173.665 82.8359 173.807 83.0671 173.904C83.2984 174.001 83.5464 174.052 83.7972 174.053Z" fill="black"/>
<path d="M105.316 174.053C105.696 174.057 106.069 173.947 106.387 173.739C106.705 173.53 106.953 173.231 107.101 172.881C107.249 172.53 107.29 172.144 107.218 171.77C107.146 171.396 106.965 171.052 106.697 170.782C106.43 170.512 106.088 170.327 105.715 170.251C105.342 170.176 104.956 170.213 104.604 170.358C104.252 170.502 103.951 170.748 103.74 171.065C103.528 171.381 103.415 171.753 103.415 172.133C103.414 172.384 103.462 172.633 103.557 172.865C103.652 173.097 103.791 173.309 103.968 173.487C104.144 173.665 104.354 173.807 104.585 173.904C104.817 174.001 105.065 174.052 105.316 174.053Z" fill="black"/>
<path d="M47.2023 171.027H56.8605C57.3241 171.027 57.7833 171.117 58.2128 171.292C58.6389 171.472 59.0243 171.736 59.3458 172.069C59.6791 172.399 59.9405 172.794 60.1133 173.23C60.2879 173.66 60.3779 174.12 60.3783 174.584V235.843C60.3799 236.31 60.2895 236.772 60.1123 237.203C59.9351 237.635 59.6747 238.027 59.3458 238.358C59.0212 238.688 58.6344 238.95 58.2077 239.129C57.7811 239.307 57.3231 239.4 56.8605 239.4H41.126C40.6655 239.399 40.2094 239.309 39.7828 239.135C39.3537 238.955 38.9629 238.694 38.6315 238.367C38.292 238.045 38.0188 237.66 37.8275 237.233C37.653 236.8 37.5631 236.338 37.5625 235.871V180.737C37.5741 178.164 38.5945 175.698 40.4042 173.87C41.2954 172.968 42.3578 172.253 43.5291 171.767C44.6857 171.279 45.9285 171.027 47.1841 171.027H47.2023Z" fill="white" stroke="#231F20" stroke-width="4" stroke-miterlimit="10"/>
<path d="M218.865 236.529H203.13C202.668 236.529 202.21 236.436 201.783 236.257C201.356 236.078 200.97 235.816 200.645 235.487C199.984 234.817 199.613 233.913 199.613 232.972V171.712C199.612 171.247 199.705 170.787 199.887 170.359C200.06 169.925 200.317 169.531 200.645 169.198C200.97 168.869 201.357 168.609 201.784 168.431C202.211 168.254 202.668 168.163 203.13 168.165H212.789C214.053 168.165 215.304 168.415 216.471 168.902C217.638 169.388 218.697 170.101 219.587 170.999C221.392 172.828 222.404 175.295 222.401 177.866V232.972C222.4 233.913 222.029 234.817 221.368 235.487C221.043 235.817 220.654 236.079 220.226 236.258C219.798 236.437 219.338 236.529 218.874 236.529H218.865Z" fill="white" stroke="#231F20" stroke-width="4" stroke-miterlimit="10"/>
<path d="M154.675 154.88C155.056 154.883 155.428 154.774 155.746 154.565C156.064 154.356 156.313 154.058 156.461 153.707C156.609 153.357 156.65 152.97 156.578 152.597C156.506 152.223 156.324 151.879 156.057 151.609C155.789 151.338 155.447 151.154 155.075 151.078C154.702 151.002 154.315 151.039 153.964 151.184C153.612 151.329 153.311 151.575 153.099 151.891C152.888 152.207 152.775 152.579 152.775 152.96C152.774 153.211 152.822 153.459 152.917 153.692C153.011 153.924 153.151 154.135 153.328 154.314C153.504 154.492 153.714 154.634 153.945 154.731C154.176 154.828 154.425 154.879 154.675 154.88Z" fill="black"/>
<path d="M176.184 154.88C176.565 154.885 176.939 154.777 177.258 154.57C177.577 154.362 177.827 154.064 177.977 153.714C178.126 153.363 178.168 152.976 178.097 152.602C178.026 152.228 177.846 151.883 177.578 151.612C177.311 151.341 176.969 151.155 176.596 151.079C176.223 151.002 175.836 151.039 175.484 151.183C175.132 151.328 174.831 151.574 174.618 151.89C174.406 152.206 174.293 152.579 174.293 152.96C174.291 153.465 174.488 153.951 174.843 154.31C175.197 154.67 175.68 154.875 176.184 154.88Z" fill="black"/>
<path d="M154.675 174.053C155.056 174.057 155.428 173.947 155.746 173.739C156.064 173.53 156.313 173.231 156.461 172.881C156.609 172.53 156.65 172.144 156.578 171.77C156.506 171.396 156.324 171.052 156.057 170.782C155.789 170.512 155.447 170.327 155.075 170.251C154.702 170.176 154.315 170.213 153.964 170.358C153.612 170.502 153.311 170.748 153.099 171.065C152.888 171.381 152.775 171.753 152.775 172.133C152.774 172.384 152.822 172.633 152.917 172.865C153.011 173.097 153.151 173.309 153.328 173.487C153.504 173.665 153.714 173.807 153.945 173.904C154.176 174.001 154.425 174.052 154.675 174.053Z" fill="black"/>
<path d="M176.184 174.053C176.565 174.059 176.939 173.951 177.258 173.743C177.577 173.535 177.827 173.237 177.977 172.887C178.126 172.537 178.168 172.15 178.097 171.776C178.026 171.401 177.846 171.057 177.578 170.785C177.311 170.514 176.969 170.328 176.596 170.252C176.223 170.176 175.836 170.212 175.484 170.357C175.132 170.501 174.831 170.747 174.618 171.063C174.406 171.38 174.293 171.752 174.293 172.133C174.291 172.638 174.488 173.124 174.843 173.484C175.197 173.844 175.68 174.048 176.184 174.053Z" fill="black"/>
</g>
<defs>
<clipPath id="clip0_2123_5463">
<rect width="188" height="108" fill="white" transform="translate(36 133)"/>
</clipPath>
</defs>
</svg>
