<svg width="261" height="261" viewBox="0 0 261 261" fill="none" xmlns="http://www.w3.org/2000/svg">
<path d="M199.252 67.0926V65.1174H198.326V67.0926L196.473 66.3934L196.159 67.2324L198.011 67.8966L196.875 69.4872L197.662 70.0291L198.798 68.3511L200.004 70.0291L200.721 69.4872L199.567 67.8966L201.472 67.2324L201.123 66.3934L199.252 67.0926Z" fill="#ED0000"/>
<path d="M153.326 83.1198C153.326 81.9692 153.473 80.9532 153.767 80.0719C154.085 79.1661 154.514 78.4072 155.052 77.7951C155.591 77.1831 156.215 76.718 156.925 76.3997C157.66 76.0814 158.431 75.9223 159.239 75.9223C160.047 75.9223 160.806 76.0814 161.515 76.3997C162.25 76.718 162.886 77.1831 163.425 77.7951C163.964 78.4072 164.38 79.1661 164.674 80.0719C164.992 80.9532 165.151 81.9692 165.151 83.1198C165.151 84.2704 164.992 85.2987 164.674 86.2045C164.38 87.0858 163.964 87.8325 163.425 88.4445C162.886 89.0321 162.25 89.485 161.515 89.8032C160.806 90.1215 160.047 90.2806 159.239 90.2806C158.431 90.2806 157.66 90.1215 156.925 89.8032C156.215 89.485 155.591 89.0321 155.052 88.4445C154.514 87.8325 154.085 87.0858 153.767 86.2045C153.473 85.2987 153.326 84.2704 153.326 83.1198ZM150.021 83.1198C150.021 84.5153 150.217 85.8128 150.609 87.0124C151.001 88.2119 151.588 89.2646 152.372 90.1705C153.155 91.0518 154.122 91.7495 155.273 92.2636C156.423 92.7532 157.745 92.998 159.239 92.998C160.757 92.998 162.079 92.7532 163.205 92.2636C164.355 91.7495 165.322 91.0518 166.106 90.1705C166.889 89.2646 167.477 88.2119 167.868 87.0124C168.26 85.8128 168.456 84.5153 168.456 83.1198C168.456 81.7244 168.26 80.4269 167.868 79.2273C167.477 78.0032 166.889 76.9505 166.106 76.0692C165.322 75.1634 164.355 74.4534 163.205 73.9393C162.079 73.4252 160.757 73.1682 159.239 73.1682C157.745 73.1682 156.423 73.4252 155.273 73.9393C154.122 74.4534 153.155 75.1634 152.372 76.0692C151.588 76.9505 151.001 78.0032 150.609 79.2273C150.217 80.4269 150.021 81.7244 150.021 83.1198Z" fill="#ED0000"/>
<path d="M183.74 76.363H176.543V92.5941H173.421V76.363H170.227V73.6088H173.421V70.7812C173.421 69.2389 173.862 68.076 174.743 67.2926C175.649 66.4848 176.959 66.0808 178.673 66.0808C178.966 66.0808 179.297 66.1053 179.664 66.1543C180.056 66.2032 180.399 66.2767 180.692 66.3746V69.092C180.423 68.9941 180.129 68.9329 179.811 68.9084C179.493 68.8594 179.199 68.835 178.93 68.835C178.171 68.835 177.583 68.9819 177.167 69.2756C176.751 69.5694 176.543 70.1325 176.543 70.9648V73.6088H183.74V70.7812C183.74 69.2389 184.181 68.076 185.062 67.2926C185.968 66.4848 187.278 66.0808 188.992 66.0808C189.285 66.0808 189.616 66.1053 189.983 66.1543C190.375 66.2032 190.718 66.2767 191.011 66.3746V69.092C190.742 68.9941 190.448 68.9329 190.13 68.9084C189.812 68.8594 189.518 68.835 189.249 68.835C188.49 68.835 187.902 68.9819 187.486 69.2756C187.07 69.5694 186.862 70.1325 186.862 70.9648V73.6088H190.534V76.363H186.862V92.5941H183.74V76.363Z" fill="#ED0000"/>
<path d="M165.816 63.3393C165.816 63.0563 165.825 62.7401 165.841 62.3905C165.874 62.0409 165.949 61.7163 166.066 61.4166C166.182 61.117 166.349 60.8673 166.565 60.6675C166.798 60.4678 167.115 60.3679 167.514 60.3679C167.88 60.3679 168.163 60.4844 168.363 60.7175C168.58 60.9339 168.738 61.2002 168.838 61.5165C168.937 61.8162 168.996 62.1408 169.012 62.4904C169.046 62.8233 169.062 63.1146 169.062 63.3643C169.062 63.6307 169.046 63.9386 169.012 64.2882C168.996 64.6211 168.929 64.9458 168.813 65.262C168.713 65.5617 168.546 65.8197 168.313 66.0361C168.097 66.2525 167.797 66.3607 167.414 66.3607C167.015 66.3607 166.707 66.2525 166.49 66.0361C166.274 65.8197 166.116 65.5617 166.016 65.262C165.916 64.9458 165.858 64.6128 165.841 64.2632C165.825 63.9137 165.816 63.6057 165.816 63.3393ZM163.269 63.3144C163.269 63.9969 163.336 64.6378 163.469 65.2371C163.619 65.8364 163.852 66.3607 164.168 66.8102C164.501 67.243 164.926 67.5843 165.442 67.834C165.974 68.0837 166.624 68.2085 167.389 68.2085C168.122 68.2085 168.754 68.092 169.287 67.8589C169.82 67.6092 170.253 67.268 170.585 66.8352C170.935 66.4023 171.193 65.8946 171.36 65.312C171.526 64.7293 171.609 64.0968 171.609 63.4143C171.609 62.7317 171.543 62.0908 171.409 61.4916C171.276 60.8923 171.043 60.3762 170.71 59.9434C170.394 59.4939 169.978 59.1444 169.462 58.8947C168.946 58.6283 168.297 58.4951 167.514 58.4951C166.782 58.4951 166.149 58.62 165.616 58.8697C165.084 59.1194 164.643 59.4606 164.293 59.8935C163.943 60.3263 163.685 60.834 163.519 61.4166C163.352 61.9993 163.269 62.6319 163.269 63.3144ZM165.192 49.8555L154.854 68.4083H157.027L167.314 49.8555H165.192ZM152.932 55.0493C152.932 54.7663 152.94 54.4417 152.957 54.0754C152.99 53.7092 153.065 53.3679 153.181 53.0516C153.298 52.7354 153.464 52.469 153.681 52.2526C153.914 52.0362 154.23 51.928 154.63 51.928C154.996 51.928 155.279 52.0445 155.479 52.2776C155.695 52.5106 155.853 52.7936 155.953 53.1266C156.053 53.4595 156.111 53.8091 156.128 54.1753C156.161 54.5249 156.178 54.8245 156.178 55.0742C156.178 55.3406 156.161 55.6402 156.128 55.9732C156.111 56.2894 156.045 56.5974 155.928 56.897C155.828 57.18 155.662 57.4214 155.429 57.6212C155.212 57.8209 154.913 57.9208 154.53 57.9208C154.13 57.9208 153.822 57.8209 153.606 57.6212C153.389 57.4214 153.231 57.18 153.131 56.897C153.031 56.5974 152.973 56.2811 152.957 55.9482C152.94 55.6152 152.932 55.3156 152.932 55.0493ZM150.385 54.9993C150.385 55.6818 150.451 56.3227 150.584 56.922C150.734 57.5047 150.967 58.0124 151.284 58.4452C151.617 58.8614 152.041 59.1943 152.557 59.444C153.09 59.6771 153.739 59.7936 154.505 59.7936C155.237 59.7936 155.87 59.6771 156.402 59.444C156.935 59.2109 157.368 58.8863 157.701 58.4702C158.05 58.054 158.308 57.5629 158.475 56.9969C158.641 56.4143 158.725 55.7817 158.725 55.0992C158.725 54.4167 158.658 53.7675 158.525 53.1515C158.392 52.5356 158.159 52.0029 157.826 51.5534C157.509 51.0873 157.093 50.7211 156.577 50.4548C156.061 50.1884 155.412 50.0552 154.63 50.0552C153.897 50.0552 153.265 50.1884 152.732 50.4548C152.199 50.7045 151.758 51.054 151.408 51.5035C151.059 51.953 150.801 52.4773 150.634 53.0766C150.468 53.6759 150.385 54.3168 150.385 54.9993Z" fill="#ED0000"/>
<path d="M101.481 92.6969V45.2045H93.8143C93.5429 47.0137 92.9775 48.5289 92.1182 49.7502C91.2588 50.9714 90.1959 51.9665 88.9294 52.7354C87.7082 53.4591 86.306 53.9793 84.7229 54.2959C83.1851 54.5673 81.5794 54.6803 79.9058 54.6351V61.8947H91.8468V92.6969H101.481Z" fill="#ED0000"/>
<path d="M143.754 53.1425V45.2045H117.226L112.545 71.461H121.229C122.179 70.1493 123.197 69.1995 124.282 68.6115C125.368 67.9782 126.77 67.6616 128.489 67.6616C129.8 67.6616 130.954 67.8878 131.949 68.3401C132.944 68.7924 133.803 69.4256 134.527 70.2398C135.251 71.0539 135.793 72.0038 136.155 73.0893C136.517 74.1749 136.698 75.3282 136.698 76.5495C136.698 77.7255 136.494 78.8789 136.087 80.0096C135.726 81.0952 135.183 82.0676 134.459 82.927C133.781 83.7412 132.921 84.4197 131.881 84.9624C130.886 85.46 129.755 85.7087 128.489 85.7087C126.317 85.7087 124.531 85.0755 123.129 83.809C121.727 82.4973 120.912 80.756 120.686 78.5849H111.052C111.097 81.0726 111.595 83.2663 112.545 85.166C113.54 87.0204 114.851 88.5809 116.48 89.8474C118.108 91.1138 119.963 92.0637 122.043 92.6969C124.169 93.2849 126.385 93.5789 128.692 93.5789C131.089 93.6241 133.351 93.2397 135.477 92.4255C137.603 91.5661 139.457 90.3675 141.04 88.8297C142.668 87.2918 143.958 85.4826 144.907 83.402C145.857 81.2761 146.332 78.9919 146.332 76.5495C146.332 74.3332 145.993 72.2525 145.314 70.3076C144.681 68.3175 143.731 66.5987 142.465 65.1513C141.244 63.7039 139.728 62.5505 137.919 61.6911C136.11 60.8317 134.029 60.402 131.677 60.402C129.778 60.402 128.081 60.696 126.589 61.284C125.096 61.8268 123.694 62.7541 122.382 64.0658L122.247 63.9301L124.146 53.1425H143.754Z" fill="#ED0000"/>
<path d="M89.9163 31.4387H81.7365C81.7732 30.8879 81.8926 30.3737 82.0945 29.8964C82.2965 29.4006 82.5719 28.9691 82.9208 28.6019C83.2696 28.2347 83.6828 27.9501 84.1601 27.7481C84.6559 27.5278 85.2067 27.4176 85.8126 27.4176C86.4002 27.4176 86.9327 27.5278 87.41 27.7481C87.9058 27.9501 88.3281 28.2347 88.6769 28.6019C89.0442 28.9508 89.3288 29.3731 89.5307 29.8688C89.7511 30.3646 89.8796 30.8879 89.9163 31.4387ZM92.1747 35.4047H89.8612C89.6593 36.3411 89.237 37.0388 88.5943 37.4978C87.97 37.9568 87.1622 38.1864 86.1707 38.1864C85.3995 38.1864 84.7293 38.0578 84.1601 37.8008C83.5909 37.5437 83.1227 37.204 82.7555 36.7817C82.3883 36.3411 82.1221 35.8453 81.9568 35.2945C81.7916 34.7253 81.7181 34.1286 81.7365 33.5043H92.3951C92.4318 32.6413 92.3491 31.7325 92.1472 30.7777C91.9636 29.8229 91.6147 28.9416 91.1006 28.1337C90.6049 27.3258 89.9347 26.6648 89.0901 26.1507C88.2638 25.6182 87.2172 25.352 85.9503 25.352C84.9772 25.352 84.0775 25.5356 83.2513 25.9028C82.4434 26.2701 81.7365 26.7842 81.1306 27.4452C80.543 28.1062 80.084 28.8865 79.7535 29.7862C79.423 30.6859 79.2578 31.6774 79.2578 32.7607C79.2945 33.844 79.4505 34.8447 79.726 35.7627C80.0197 36.6808 80.4512 37.4703 81.0204 38.1313C81.5896 38.7923 82.2873 39.3064 83.1136 39.6736C83.9582 40.0408 84.9497 40.2244 86.088 40.2244C87.7038 40.2244 89.0442 39.8205 90.1091 39.0126C91.174 38.2047 91.8626 37.0021 92.1747 35.4047Z" fill="#ED0000"/>
<path d="M98.65 32.4302L93.3069 39.9215H96.1437L100.11 34.0276L104.076 39.9215H107.078L101.569 32.2374L106.472 25.6825H103.663L100.11 30.6675L96.6945 25.6825H93.6925L98.65 32.4302Z" fill="#ED0000"/>
<path d="M112.326 25.6825V21.4136H109.985V25.6825H107.562V27.7481H109.985V36.8093C109.985 37.4703 110.05 38.0027 110.178 38.4067C110.307 38.8106 110.5 39.1228 110.757 39.3431C111.032 39.5634 111.381 39.7195 111.803 39.8113C112.244 39.8847 112.767 39.9215 113.373 39.9215H115.163V37.8559H114.089C113.722 37.8559 113.419 37.8467 113.18 37.8283C112.96 37.7916 112.786 37.7273 112.657 37.6355C112.528 37.5437 112.437 37.4152 112.382 37.2499C112.345 37.0847 112.326 36.8644 112.326 36.5889V27.7481H115.163V25.6825H112.326Z" fill="#ED0000"/>
<path d="M117.681 25.6825V39.9215H120.022V33.5869C120.022 32.6689 120.114 31.861 120.298 31.1633C120.481 30.4472 120.775 29.8413 121.179 29.3455C121.583 28.8498 122.116 28.4734 122.777 28.2163C123.438 27.9593 124.236 27.8307 125.173 27.8307V25.352C123.906 25.3153 122.859 25.5723 122.033 26.1232C121.207 26.674 120.509 27.5278 119.94 28.6845H119.885V25.6825H117.681Z" fill="#ED0000"/>
<path d="M139.55 39.8664C139.146 40.1051 138.586 40.2244 137.87 40.2244C137.264 40.2244 136.777 40.0592 136.41 39.7287C136.061 39.3798 135.887 38.8198 135.887 38.0486C135.244 38.8198 134.491 39.3798 133.628 39.7287C132.784 40.0592 131.865 40.2244 130.874 40.2244C130.231 40.2244 129.616 40.151 129.029 40.0041C128.46 39.8572 127.964 39.6277 127.541 39.3156C127.119 39.0034 126.779 38.5995 126.522 38.1037C126.284 37.5896 126.164 36.9745 126.164 36.2584C126.164 35.4506 126.302 34.7896 126.578 34.2755C126.853 33.7614 127.211 33.3482 127.652 33.0361C128.111 32.7056 128.625 32.4577 129.194 32.2925C129.781 32.1272 130.378 31.9895 130.984 31.8793C131.627 31.7508 132.233 31.659 132.802 31.6039C133.389 31.5305 133.904 31.4387 134.344 31.3285C134.785 31.2 135.134 31.0256 135.391 30.8052C135.648 30.5665 135.776 30.2269 135.776 29.7862C135.776 29.2721 135.675 28.859 135.473 28.5468C135.29 28.2347 135.042 27.996 134.73 27.8307C134.436 27.6655 134.096 27.5553 133.711 27.5002C133.344 27.4452 132.976 27.4176 132.609 27.4176C131.618 27.4176 130.791 27.6104 130.13 27.996C129.469 28.3632 129.111 29.0701 129.056 30.1167H126.715C126.752 29.2354 126.936 28.4917 127.266 27.8858C127.597 27.2799 128.037 26.7933 128.588 26.4261C129.139 26.0405 129.763 25.7651 130.461 25.5999C131.177 25.4346 131.939 25.352 132.747 25.352C133.389 25.352 134.023 25.3979 134.647 25.4897C135.29 25.5815 135.868 25.7743 136.382 26.0681C136.896 26.3435 137.31 26.7383 137.622 27.2524C137.934 27.7665 138.09 28.4367 138.09 29.2629V36.5889C138.09 37.1398 138.117 37.5437 138.172 37.8008C138.246 38.0578 138.466 38.1864 138.833 38.1864C139.035 38.1864 139.274 38.1405 139.55 38.0486V39.8664ZM135.749 32.5679C135.455 32.7882 135.069 32.9535 134.592 33.0636C134.115 33.1554 133.61 33.2381 133.077 33.3115C132.563 33.3666 132.04 33.44 131.507 33.5318C130.975 33.6053 130.498 33.7338 130.075 33.9174C129.653 34.101 129.304 34.3673 129.029 34.7161C128.772 35.0466 128.643 35.5056 128.643 36.0932C128.643 36.4788 128.717 36.8093 128.863 37.0847C129.029 37.3417 129.231 37.5529 129.469 37.7181C129.726 37.8834 130.02 38.0027 130.351 38.0762C130.681 38.1496 131.03 38.1864 131.397 38.1864C132.168 38.1864 132.829 38.0854 133.38 37.8834C133.931 37.6631 134.381 37.3968 134.73 37.0847C135.079 36.7542 135.336 36.4053 135.501 36.0381C135.666 35.6525 135.749 35.2945 135.749 34.964V32.5679Z" fill="#ED0000"/>
<ellipse cx="192.732" cy="231.601" rx="23.3855" ry="5.50246" fill="white"/>
<ellipse cx="130.829" cy="231.601" rx="23.3855" ry="5.50246" fill="white"/>
<ellipse cx="70.302" cy="231.601" rx="23.3855" ry="5.50246" fill="white"/>
<path d="M67.5508 201.337C62.5986 201.337 57.6922 202.713 55.8581 203.401L48.98 226.098C53.3361 224.723 63.6991 221.972 70.302 221.972C76.905 221.972 87.2679 224.723 91.6241 226.098L82.6826 203.401C79.7021 202.713 72.503 201.337 67.5508 201.337Z" fill="white"/>
<path d="M128.766 201.337C123.813 201.337 118.907 202.713 117.073 203.401L110.195 226.098C114.551 224.723 124.914 221.972 131.517 221.972C138.12 221.972 148.483 224.723 152.839 226.098L143.897 203.401C140.917 202.713 133.718 201.337 128.766 201.337Z" fill="white"/>
<path d="M190.668 201.337C185.716 201.337 180.81 202.713 178.976 203.401L172.098 226.098C176.454 224.723 186.817 221.972 193.42 221.972C200.023 221.972 210.385 224.723 214.742 226.098L205.8 203.401C202.82 202.713 195.621 201.337 190.668 201.337Z" fill="white"/>
<path d="M220.932 167.635H37.2872L59.9849 187.581L203.049 186.206L220.932 167.635Z" fill="white"/>
<path d="M94.4494 129.567C89.9865 130.706 87.9766 132.832 89.4238 134.883C90.3083 136.173 93.8867 137.693 96.6615 137.958L98.8737 138.186L99.0131 151.825V165.05H69.0196C49.1178 165.05 38.5 165 38.5 165H36V166.5V171L59.4907 190.491H63.7532H68.0561V194.821V199.112L65.5241 199.339C59.3732 199.871 54.3071 201.846 53.1008 204.162C52.6981 204.883 50.6478 210.199 48.5165 215.934C46.3853 221.668 44.1346 227.667 43.4505 229.225C42.7664 230.857 42.3656 232.415 42.4851 232.87C43.4505 236.401 50.5669 239.4 60.9398 240.616C67.3335 241.375 79.6354 240.92 85.1041 239.704C92.3419 238.11 96.8838 235.604 97.6488 232.87C97.7702 232.377 97.5678 231.312 97.2056 230.515C96.8433 229.718 94.5521 223.718 92.1395 217.262C86.5513 202.377 87.033 203.516 85.5859 202.492C83.2542 200.859 77.1438 199.227 73.444 199.227H72.0777V194.861V190.495H101.025H129.972V194.861V199.227H128.606C124.465 199.227 117.508 201.24 115.82 202.948C115.057 203.669 113.448 207.467 110.111 216.429C107.538 223.303 105.166 229.378 104.844 229.986C101.466 236.137 113.367 240.998 131.822 240.998C150.277 240.998 162.097 236.214 158.759 230.062C158.478 229.492 156.065 223.341 153.452 216.354C150.558 208.645 148.386 203.367 147.904 202.912C145.974 201.165 139.3 199.228 135.2 199.228H133.591V194.862V190.496H162.74H191.89V194.826V199.117L189.196 199.345C182.964 199.838 177.738 201.813 176.532 204.168C175.325 206.485 166.159 231.356 166.159 232.306C166.159 233.711 168.369 235.951 171.022 237.204C176.21 239.671 184.13 241 193.9 241C209.701 241 221.24 237.316 221.24 232.304C221.24 231.545 220.958 230.557 220.636 230.102C220.315 229.647 217.862 223.496 215.249 216.432C210.986 205.08 210.263 203.484 209.138 202.574C207.45 201.207 203.831 200.067 199.447 199.536L195.909 199.081V194.79V190.498H200.21H204.471L225.336 168.5V165.05H194.62H164.546V147.811V138.301L166.718 138.073C170.737 137.693 174.597 135.529 174.597 133.631C174.597 132.415 172.988 131.048 170.656 130.175C167.762 129.15 160.725 128.731 157.349 129.454C148.061 131.39 148.945 136.783 158.836 138.111L160.727 138.377L160.848 147.886L160.929 165.05H131.779H102.63V151.825C102.63 138.459 102.612 138.413 103.013 138.301C103.254 138.224 104.66 137.958 106.11 137.693C114.473 136.211 114.873 131.503 106.713 129.49C104.059 128.806 97.2647 128.844 94.4494 129.567ZM221 168.5C221 169.811 203.425 187.073 203.425 187.073H199.646H195.907V183.959C195.907 180.694 195.345 179.478 193.857 179.478C192.37 179.478 191.888 180.503 191.888 183.883V187.073H162.738H133.589V183.732C133.589 180.201 133.267 179.478 131.779 179.478C130.292 179.478 129.97 180.199 129.97 183.732V187.073H101.023H72.0739V183.883C72.0739 181.453 71.9139 180.541 71.4303 180.086C70.6267 179.289 69.7018 179.327 68.7768 180.124C68.1737 180.618 68.0542 181.302 68.0542 183.921V187.073H64.3159H60.5371C60.5371 187.073 38.8856 169.311 38.5 168.5C36.8856 168.5 83.734 168.5 131.779 168.5C179.825 168.5 222.556 168.311 221 168.5ZM78.5081 203.059C79.7144 203.287 81.3619 203.742 82.1674 204.046L83.6146 204.577L87.4743 214.906C89.5651 220.602 91.4555 225.576 91.6154 225.956C91.8563 226.564 91.7753 226.639 91.1336 226.373C82.2888 222.879 62.1461 222.462 51.6113 225.614C49.9637 226.107 48.5551 226.488 48.4761 226.449C48.2737 226.222 56.5559 204.692 56.9567 204.426C59.6911 202.679 72.1143 201.882 78.5081 203.059ZM140.987 203.211C142.515 203.514 144.122 203.969 144.565 204.273C145.087 204.616 146.615 208.108 149.309 215.324C151.521 221.133 153.29 226.033 153.29 226.184C153.29 226.337 152.246 226.184 150.918 225.803C139.983 222.575 121.85 222.689 111.839 225.993C110.995 226.297 110.27 226.411 110.27 226.258C110.27 225.803 118.03 205.109 118.393 204.69C118.915 204.008 123.258 202.981 126.875 202.677C131.257 202.339 137.568 202.566 140.987 203.211ZM201.455 203.059C202.862 203.249 204.712 203.704 205.556 204.009L207.043 204.579L210.903 214.907C213.034 220.604 214.844 225.501 215.004 225.843C215.204 226.375 214.763 226.337 211.907 225.54C206.6 224.096 201.212 223.45 193.693 223.488C186.136 223.488 180.748 224.096 175.4 225.578C173.51 226.071 171.943 226.49 171.903 226.413C171.703 226.224 180.025 204.694 180.386 204.428C183.041 202.679 194.217 201.92 201.455 203.059ZM79.512 227.361C84.2563 227.931 88.6382 228.994 91.3726 230.284C93.3015 231.196 93.5848 231.462 93.5848 232.448C93.5848 233.436 93.3034 233.7 91.3726 234.612C82.0441 239.016 55.5096 238.712 47.6301 234.157C44.8553 232.563 46.7052 230.322 51.9716 228.803C57.8817 227.134 71.3108 226.413 79.512 227.361ZM142.031 227.514C149.348 228.464 154.976 230.324 155.539 231.995C156.183 233.893 151.438 235.906 143.759 237.045C137.849 237.919 125.708 237.919 119.797 237.045C114.491 236.248 110.068 234.881 108.7 233.627C107.816 232.792 107.775 232.565 108.178 231.691C109.022 229.944 114.772 228.122 121.767 227.363C126.432 226.83 137.53 226.906 142.031 227.514ZM207.365 228.007C214 229.374 217.86 231.272 217.538 232.943C217.457 233.285 216.412 234.044 215.206 234.614C207.728 238.144 187.866 238.867 176.69 236.019C169.373 234.197 167.964 231.955 172.67 229.867C177.495 227.742 183.846 226.943 195.104 227.134C201.817 227.248 204.55 227.438 207.365 228.007Z" fill="#252525" stroke="#252525" stroke-width="0.275123"/>
</svg>
