<svg width="767" height="800" fill="none" xmlns="http://www.w3.org/2000/svg"><path fill="#fff" d="M197.677 257.753h371.441v59.583H197.677zM142 324.942h483v68.457H142z"/><path d="M227.072 286.651h-16.729a9.688 9.688 0 0 1 .732-3.155 8.39 8.39 0 0 1 1.69-2.647 7.46 7.46 0 0 1 2.535-1.747c1.014-.45 2.14-.676 3.379-.676 1.202 0 2.291.226 3.267.676a7.353 7.353 0 0 1 2.592 1.747 7.338 7.338 0 0 1 1.746 2.591 9.39 9.39 0 0 1 .788 3.211Zm4.619 8.111h-4.731c-.413 1.915-1.277 3.342-2.591 4.281-1.277.939-2.929 1.408-4.957 1.408-1.578 0-2.948-.263-4.112-.788-1.165-.526-2.122-1.221-2.873-2.085a8.535 8.535 0 0 1-1.634-3.041 11.796 11.796 0 0 1-.45-3.662h21.799c.075-1.765-.094-3.624-.507-5.576a15.39 15.39 0 0 0-2.14-5.408c-1.014-1.652-2.385-3.004-4.112-4.056-1.69-1.089-3.831-1.633-6.422-1.633-1.99 0-3.83.375-5.52 1.126a13.293 13.293 0 0 0-4.338 3.155c-1.201 1.352-2.14 2.948-2.816 4.788-.676 1.84-1.014 3.868-1.014 6.083.075 2.216.394 4.263.958 6.14.6 1.878 1.483 3.493 2.647 4.845 1.164 1.351 2.591 2.403 4.281 3.154 1.728.751 3.755 1.127 6.084 1.127 3.304 0 6.046-.827 8.224-2.479 2.178-1.652 3.586-4.112 4.224-7.379Zm3.724-19.884V304h4.788v-16.448c0-1.315.169-2.516.507-3.605.376-1.127.92-2.103 1.634-2.929a7.172 7.172 0 0 1 2.647-1.916c1.089-.45 2.366-.676 3.831-.676 1.84 0 3.286.526 4.337 1.578 1.052 1.051 1.577 2.478 1.577 4.281V304h4.788v-19.152c0-1.577-.169-3.004-.507-4.281-.3-1.314-.845-2.441-1.633-3.38-.789-.939-1.821-1.671-3.098-2.197-1.277-.525-2.873-.788-4.788-.788-4.319 0-7.473 1.765-9.464 5.295h-.112v-4.619h-4.507Zm33.103 14.814c0-1.427.15-2.816.451-4.168.3-1.352.788-2.554 1.464-3.605a7.623 7.623 0 0 1 2.704-2.535c1.127-.638 2.497-.958 4.112-.958 1.653 0 3.061.32 4.225.958 1.164.601 2.103 1.408 2.816 2.422.751 1.014 1.296 2.197 1.634 3.549.338 1.314.507 2.685.507 4.112a15.99 15.99 0 0 1-.507 3.999 10.345 10.345 0 0 1-1.521 3.549 8.37 8.37 0 0 1-2.76 2.479c-1.127.638-2.497.957-4.112.957-1.54 0-2.892-.3-4.056-.901a8.351 8.351 0 0 1-2.816-2.422 11.613 11.613 0 0 1-1.634-3.436 16.003 16.003 0 0 1-.507-4ZM291.05 304v-40.219h-4.788v14.983h-.113a7.186 7.186 0 0 0-1.971-2.14 9.275 9.275 0 0 0-2.422-1.408 11.355 11.355 0 0 0-2.592-.789 14.194 14.194 0 0 0-2.422-.225c-2.215 0-4.168.413-5.858 1.239a11.883 11.883 0 0 0-4.168 3.267c-1.089 1.352-1.916 2.948-2.479 4.788-.526 1.84-.789 3.793-.789 5.858 0 2.066.282 4.019.845 5.859.564 1.84 1.39 3.454 2.479 4.844a12.484 12.484 0 0 0 4.168 3.323c1.69.827 3.662 1.24 5.915 1.24 2.028 0 3.887-.357 5.577-1.071 1.689-.713 2.929-1.877 3.717-3.492h.113V304h4.788Zm23.157-14.533c0-1.765.225-3.323.676-4.675.488-1.39 1.145-2.554 1.971-3.493a8.342 8.342 0 0 1 2.873-2.14 8.832 8.832 0 0 1 3.549-.733c1.239 0 2.403.245 3.492.733a8.198 8.198 0 0 1 2.929 2.14c.826.939 1.465 2.103 1.915 3.493.489 1.352.733 2.91.733 4.675 0 1.765-.244 3.342-.733 4.732-.45 1.352-1.089 2.497-1.915 3.436a8.525 8.525 0 0 1-2.929 2.084 8.441 8.441 0 0 1-3.492.732 8.831 8.831 0 0 1-3.549-.732 8.683 8.683 0 0 1-2.873-2.084c-.826-.939-1.483-2.084-1.971-3.436-.451-1.39-.676-2.967-.676-4.732Zm-5.07 0c0 2.141.3 4.131.901 5.971.601 1.84 1.502 3.455 2.704 4.844 1.202 1.352 2.685 2.422 4.45 3.211 1.765.751 3.793 1.127 6.084 1.127 2.328 0 4.356-.376 6.083-1.127 1.765-.789 3.249-1.859 4.45-3.211 1.202-1.389 2.103-3.004 2.704-4.844.601-1.84.901-3.83.901-5.971s-.3-4.131-.901-5.971c-.601-1.878-1.502-3.492-2.704-4.844-1.201-1.39-2.685-2.479-4.45-3.267-1.727-.789-3.755-1.183-6.083-1.183-2.291 0-4.319.394-6.084 1.183-1.765.788-3.248 1.877-4.45 3.267-1.202 1.352-2.103 2.966-2.704 4.844-.601 1.84-.901 3.83-.901 5.971Zm34.204-10.365V304h4.788v-24.898h5.633v-4.224h-5.633v-4.056c0-1.277.319-2.141.958-2.591.638-.451 1.539-.676 2.704-.676.413 0 .863.037 1.352.113.488.037.938.131 1.351.281v-4.168a8.248 8.248 0 0 0-1.577-.338 11.635 11.635 0 0 0-1.521-.113c-2.628 0-4.637.62-6.027 1.859-1.352 1.202-2.028 2.985-2.028 5.351v4.338h-4.9v4.224h4.9Zm29.923 15.716h-4.788c.076 1.803.451 3.343 1.127 4.619a8.791 8.791 0 0 0 2.704 3.042c1.126.751 2.422 1.296 3.887 1.634a20.48 20.48 0 0 0 4.619.507c1.464 0 2.929-.151 4.393-.451 1.502-.263 2.836-.751 4-1.465a8.25 8.25 0 0 0 2.872-2.816c.752-1.164 1.127-2.629 1.127-4.394 0-1.389-.282-2.553-.845-3.492a6.642 6.642 0 0 0-2.14-2.31c-.864-.638-1.878-1.145-3.042-1.521a34.223 34.223 0 0 0-3.493-.957 107.294 107.294 0 0 0-3.379-.732 24.62 24.62 0 0 1-3.042-.902c-.901-.375-1.653-.826-2.253-1.352-.564-.563-.845-1.258-.845-2.084 0-.751.187-1.352.563-1.802a3.658 3.658 0 0 1 1.465-1.127 6.74 6.74 0 0 1 1.971-.62 14.888 14.888 0 0 1 2.197-.169c.789 0 1.558.094 2.309.282.789.15 1.503.413 2.141.789a4.686 4.686 0 0 1 1.577 1.521c.413.6.657 1.37.732 2.309h4.788c-.112-1.765-.488-3.229-1.126-4.394-.639-1.201-1.502-2.14-2.591-2.816-1.052-.714-2.272-1.202-3.662-1.465-1.389-.3-2.91-.45-4.562-.45-1.277 0-2.573.169-3.887.507-1.277.3-2.441.788-3.493 1.464a8.184 8.184 0 0 0-2.534 2.535c-.639 1.052-.958 2.31-.958 3.774 0 1.878.469 3.342 1.408 4.394.939 1.051 2.103 1.878 3.493 2.478a27.574 27.574 0 0 0 4.619 1.352 43 43 0 0 1 4.562 1.071c1.427.375 2.61.882 3.549 1.52.939.639 1.408 1.578 1.408 2.817 0 .901-.225 1.652-.676 2.253a4.353 4.353 0 0 1-1.746 1.296c-.676.3-1.427.507-2.253.619-.826.113-1.615.169-2.366.169-.976 0-1.934-.094-2.873-.281a8.869 8.869 0 0 1-2.478-.902 5.514 5.514 0 0 1-1.746-1.746c-.451-.751-.695-1.652-.733-2.704ZM420.919 304v-29.122h-4.788v16.448c0 1.314-.188 2.535-.563 3.661a7.948 7.948 0 0 1-1.577 2.873c-.714.826-1.615 1.465-2.704 1.915-1.052.451-2.31.676-3.774.676-1.84 0-3.286-.525-4.338-1.577-1.051-1.051-1.577-2.478-1.577-4.281v-19.715h-4.788v19.152c0 1.577.15 3.023.451 4.337.338 1.277.901 2.385 1.69 3.323.788.939 1.821 1.672 3.098 2.197 1.277.489 2.873.733 4.788.733 2.14 0 3.999-.413 5.576-1.24 1.578-.863 2.873-2.196 3.887-3.999h.113V304h4.506Zm5.501-29.122V304h4.788v-18.138c0-.563.132-1.258.395-2.084.3-.864.751-1.69 1.352-2.479.638-.788 1.445-1.464 2.422-2.028 1.014-.563 2.215-.845 3.605-.845 1.089 0 1.971.169 2.647.507.714.301 1.277.751 1.69 1.352.413.564.695 1.24.845 2.028.188.789.282 1.653.282 2.591V304h4.788v-18.138c0-2.253.676-4.056 2.028-5.408 1.352-1.352 3.211-2.028 5.576-2.028 1.164 0 2.103.169 2.817.507.751.338 1.333.808 1.746 1.409.413.563.695 1.239.845 2.028.15.788.225 1.633.225 2.534V304h4.788v-21.349c0-1.502-.244-2.779-.732-3.83-.451-1.089-1.108-1.972-1.972-2.648-.826-.676-1.84-1.164-3.041-1.464-1.164-.338-2.479-.507-3.943-.507-1.916 0-3.681.432-5.295 1.295-1.578.864-2.854 2.085-3.831 3.662-.601-1.803-1.633-3.08-3.098-3.831-1.464-.751-3.098-1.126-4.901-1.126-4.093 0-7.228 1.652-9.407 4.957h-.112v-4.281h-4.507Zm46.334 0V304h4.788v-18.138c0-.563.131-1.258.394-2.084.3-.864.751-1.69 1.352-2.479.638-.788 1.446-1.464 2.422-2.028 1.014-.563 2.216-.845 3.605-.845 1.089 0 1.972.169 2.648.507.713.301 1.276.751 1.689 1.352.414.564.695 1.24.845 2.028.188.789.282 1.653.282 2.591V304h4.788v-18.138c0-2.253.676-4.056 2.028-5.408 1.352-1.352 3.211-2.028 5.576-2.028 1.165 0 2.103.169 2.817.507.751.338 1.333.808 1.746 1.409.413.563.695 1.239.845 2.028.15.788.225 1.633.225 2.534V304h4.788v-21.349c0-1.502-.244-2.779-.732-3.83-.45-1.089-1.108-1.972-1.971-2.648-.827-.676-1.84-1.164-3.042-1.464-1.164-.338-2.479-.507-3.943-.507-1.915 0-3.68.432-5.295 1.295-1.577.864-2.854 2.085-3.831 3.662-.6-1.803-1.633-3.08-3.098-3.831-1.464-.751-3.098-1.126-4.9-1.126-4.094 0-7.229 1.652-9.407 4.957h-.113v-4.281h-4.506Zm66.555 11.773h-16.73a9.688 9.688 0 0 1 .732-3.155 8.426 8.426 0 0 1 1.69-2.647 7.48 7.48 0 0 1 2.535-1.747c1.014-.45 2.141-.676 3.38-.676 1.202 0 2.291.226 3.267.676a7.34 7.34 0 0 1 2.591 1.747 7.338 7.338 0 0 1 1.746 2.591 9.368 9.368 0 0 1 .789 3.211Zm4.619 8.111h-4.732c-.413 1.915-1.276 3.342-2.591 4.281-1.277.939-2.929 1.408-4.957 1.408-1.577 0-2.948-.263-4.112-.788-1.164-.526-2.122-1.221-2.873-2.085a8.533 8.533 0 0 1-1.633-3.041 11.826 11.826 0 0 1-.451-3.662h21.8c.075-1.765-.094-3.624-.507-5.576a15.391 15.391 0 0 0-2.141-5.408c-1.014-1.652-2.384-3.004-4.112-4.056-1.69-1.089-3.83-1.633-6.421-1.633-1.991 0-3.831.375-5.521 1.126a13.29 13.29 0 0 0-4.337 3.155c-1.202 1.352-2.141 2.948-2.817 4.788-.676 1.84-1.013 3.868-1.013 6.083.075 2.216.394 4.263.957 6.14.601 1.878 1.483 3.493 2.648 4.845 1.164 1.351 2.591 2.403 4.281 3.154 1.727.751 3.755 1.127 6.083 1.127 3.305 0 6.046-.827 8.224-2.479 2.178-1.652 3.587-4.112 4.225-7.379Zm3.555-19.884V304h4.788v-12.956c0-1.877.188-3.53.563-4.957.376-1.464.977-2.704 1.803-3.717.826-1.014 1.915-1.784 3.267-2.31 1.352-.526 2.985-.789 4.901-.789v-5.069c-2.592-.075-4.732.45-6.422 1.577-1.69 1.127-3.117 2.873-4.281 5.239h-.113v-6.14h-4.506Z" fill="#252525"/><path d="M166.74 369.244h-13.491c.134 3.464.9 6.362 2.299 8.694 1.465 2.265 3.297 4.097 5.496 5.496 2.265 1.399 4.83 2.398 7.694 2.998 2.865.6 5.796.899 8.794.899 2.931 0 5.796-.299 8.594-.899 2.864-.533 5.396-1.499 7.594-2.898a16.09 16.09 0 0 0 5.297-5.496c1.399-2.332 2.098-5.196 2.098-8.594 0-2.398-.466-4.397-1.399-5.996a12.157 12.157 0 0 0-3.697-4.097c-1.533-1.132-3.298-2.031-5.297-2.698a56.563 56.563 0 0 0-5.995-1.698c-1.999-.467-3.964-.9-5.896-1.299a58.87 58.87 0 0 1-5.196-1.3c-1.466-.532-2.665-1.199-3.598-1.998-.932-.8-1.399-1.832-1.399-3.098 0-1.066.267-1.898.8-2.498a5.14 5.14 0 0 1 1.898-1.499 8.254 8.254 0 0 1 2.599-.6 18.462 18.462 0 0 1 2.598-.199c2.531 0 4.73.499 6.595 1.499 1.865.932 2.898 2.764 3.098 5.496h13.49c-.266-3.198-1.099-5.83-2.498-7.895-1.333-2.132-3.031-3.83-5.097-5.096-2.065-1.266-4.43-2.165-7.094-2.698a40.2 40.2 0 0 0-8.095-.8c-2.798 0-5.529.267-8.194.8-2.664.466-5.063 1.332-7.194 2.598-2.132 1.199-3.864 2.865-5.197 4.996-1.266 2.132-1.898 4.864-1.898 8.194 0 2.266.466 4.197 1.399 5.796.932 1.533 2.165 2.832 3.697 3.898 1.532.999 3.264 1.832 5.196 2.498a91.694 91.694 0 0 0 6.096 1.599c5.063 1.065 8.993 2.131 11.791 3.197 2.865 1.066 4.297 2.665 4.297 4.797 0 1.266-.3 2.331-.899 3.198-.6.799-1.366 1.465-2.298 1.998-.867.466-1.866.833-2.998 1.099-1.066.2-2.099.3-3.098.3-1.399 0-2.765-.166-4.097-.5-1.266-.333-2.398-.832-3.398-1.499a9.65 9.65 0 0 1-2.498-2.698c-.599-1.132-.899-2.464-.899-3.997Zm88.147 16.788v-51.663h-14.19v27.081c0 5.263-.866 9.06-2.598 11.392-1.732 2.265-4.53 3.397-8.394 3.397-3.397 0-5.762-1.032-7.095-3.097-1.332-2.132-1.998-5.33-1.998-9.594v-29.179h-14.19v31.778c0 3.197.267 6.128.8 8.793.599 2.598 1.598 4.83 2.997 6.695 1.399 1.799 3.298 3.198 5.696 4.197 2.465 1 5.596 1.499 9.394 1.499 2.997 0 5.929-.666 8.793-1.998 2.865-1.333 5.196-3.498 6.995-6.496h.3v7.195h13.49Zm33.853-9.293c-2.265 0-4.197-.466-5.796-1.399-1.598-.933-2.898-2.132-3.897-3.597-.933-1.533-1.632-3.298-2.098-5.297-.4-1.998-.6-4.03-.6-6.095 0-2.132.2-4.197.6-6.196.399-1.998 1.066-3.764 1.998-5.296 1-1.532 2.265-2.765 3.797-3.697 1.599-1 3.565-1.499 5.896-1.499 2.265 0 4.164.499 5.696 1.499a11.176 11.176 0 0 1 3.897 3.797c1 1.532 1.699 3.298 2.099 5.296.466 1.999.699 4.031.699 6.096 0 2.065-.2 4.097-.599 6.095-.4 1.999-1.099 3.764-2.099 5.297-.932 1.465-2.198 2.664-3.797 3.597-1.532.933-3.464 1.399-5.796 1.399Zm-26.081-42.37v69.75h14.19v-24.482h.2c1.732 2.531 3.93 4.463 6.595 5.796 2.731 1.265 5.696 1.898 8.893 1.898 3.798 0 7.095-.733 9.893-2.198 2.865-1.466 5.23-3.431 7.095-5.896 1.932-2.465 3.364-5.296 4.297-8.494.933-3.197 1.399-6.528 1.399-9.993 0-3.664-.466-7.161-1.399-10.492-.933-3.398-2.365-6.362-4.297-8.894-1.932-2.531-4.363-4.563-7.295-6.095-2.931-1.532-6.428-2.299-10.492-2.299-3.198 0-6.129.633-8.794 1.899-2.664 1.266-4.863 3.298-6.595 6.096h-.2v-6.596h-13.49Zm92.866 20.286h-23.083c.066-.999.266-2.132.599-3.398.4-1.265 1.033-2.465 1.899-3.597.932-1.133 2.132-2.065 3.597-2.798 1.532-.8 3.431-1.199 5.696-1.199 3.464 0 6.029.932 7.694 2.798 1.733 1.865 2.932 4.596 3.598 8.194Zm-23.083 8.993h37.273c.266-3.997-.067-7.827-1-11.491-.932-3.664-2.464-6.929-4.596-9.793-2.065-2.865-4.73-5.13-7.995-6.795-3.264-1.733-7.094-2.599-11.491-2.599-3.931 0-7.528.7-10.792 2.099-3.198 1.399-5.963 3.331-8.295 5.796-2.331 2.398-4.13 5.263-5.396 8.594-1.265 3.33-1.898 6.928-1.898 10.792 0 3.997.599 7.661 1.798 10.992 1.266 3.331 3.032 6.195 5.297 8.594 2.265 2.398 5.029 4.263 8.294 5.596 3.264 1.265 6.928 1.898 10.992 1.898 5.862 0 10.859-1.332 14.989-3.997 4.13-2.665 7.195-7.095 9.193-13.29h-12.491c-.466 1.599-1.732 3.131-3.797 4.596-2.065 1.399-4.53 2.099-7.395 2.099-3.997 0-7.061-1.033-9.193-3.098-2.132-2.065-3.298-5.396-3.497-9.993Zm42.691-29.279v51.663h14.189v-23.283c0-2.332.234-4.497.7-6.495.466-1.999 1.232-3.731 2.298-5.197 1.133-1.532 2.598-2.731 4.397-3.597 1.799-.866 3.997-1.299 6.595-1.299.866 0 1.766.067 2.698.2.933.066 1.733.166 2.399.3V333.47c-1.133-.333-2.165-.5-3.098-.5-1.799 0-3.531.267-5.196.8a18.09 18.09 0 0 0-4.697 2.298 16.145 16.145 0 0 0-3.897 3.498 16.6 16.6 0 0 0-2.698 4.397h-.2v-9.594h-13.49Zm71.647 34.875h-13.49c.133 3.464.899 6.362 2.298 8.694 1.466 2.265 3.298 4.097 5.496 5.496 2.265 1.399 4.83 2.398 7.695 2.998 2.864.6 5.796.899 8.793.899 2.932 0 5.796-.299 8.594-.899 2.865-.533 5.396-1.499 7.595-2.898a16.087 16.087 0 0 0 5.296-5.496c1.399-2.332 2.099-5.196 2.099-8.594 0-2.398-.467-4.397-1.399-5.996a12.16 12.16 0 0 0-3.698-4.097c-1.532-1.132-3.297-2.031-5.296-2.698a56.648 56.648 0 0 0-5.996-1.698c-1.998-.467-3.964-.9-5.895-1.299a58.987 58.987 0 0 1-5.197-1.3c-1.465-.532-2.664-1.199-3.597-1.998-.933-.8-1.399-1.832-1.399-3.098 0-1.066.266-1.898.799-2.498a5.135 5.135 0 0 1 1.899-1.499 8.242 8.242 0 0 1 2.598-.6 18.484 18.484 0 0 1 2.598-.199c2.532 0 4.73.499 6.595 1.499 1.866.932 2.898 2.764 3.098 5.496h13.491c-.267-3.198-1.1-5.83-2.499-7.895-1.332-2.132-3.031-3.83-5.096-5.096s-4.43-2.165-7.095-2.698a40.182 40.182 0 0 0-8.094-.8c-2.798 0-5.529.267-8.194.8-2.665.466-5.063 1.332-7.195 2.598-2.132 1.199-3.864 2.865-5.196 4.996-1.266 2.132-1.899 4.864-1.899 8.194 0 2.266.466 4.197 1.399 5.796.933 1.533 2.165 2.832 3.697 3.898 1.533.999 3.265 1.832 5.197 2.498a91.505 91.505 0 0 0 6.095 1.599c5.063 1.065 8.994 2.131 11.792 3.197 2.864 1.066 4.297 2.665 4.297 4.797 0 1.266-.3 2.331-.9 3.198-.599.799-1.365 1.465-2.298 1.998-.866.466-1.865.833-2.998 1.099-1.066.2-2.098.3-3.098.3-1.399 0-2.764-.166-4.097-.5-1.265-.333-2.398-.832-3.397-1.499a9.65 9.65 0 0 1-2.498-2.698c-.6-1.132-.9-2.464-.9-3.997Zm39.083-18.986c.2-3.331 1.033-6.096 2.498-8.294a17.016 17.016 0 0 1 5.596-5.296c2.265-1.333 4.797-2.265 7.595-2.798 2.864-.6 5.729-.9 8.594-.9 2.598 0 5.229.2 7.894.6 2.665.333 5.096 1.033 7.295 2.098 2.198 1.066 3.997 2.565 5.396 4.497 1.399 1.866 2.098 4.364 2.098 7.495v26.881c0 2.331.133 4.563.4 6.695.266 2.131.733 3.73 1.399 4.796h-14.39a32.832 32.832 0 0 1-.699-2.398 34.785 34.785 0 0 1-.3-2.598c-2.265 2.331-4.93 3.964-7.994 4.896a32.08 32.08 0 0 1-9.393 1.399c-2.465 0-4.764-.299-6.896-.899-2.131-.6-3.997-1.532-5.595-2.798-1.599-1.266-2.865-2.865-3.798-4.797-.866-1.932-1.299-4.23-1.299-6.895 0-2.931.5-5.329 1.499-7.194 1.066-1.932 2.398-3.465 3.997-4.597 1.666-1.133 3.531-1.965 5.596-2.498a54.827 54.827 0 0 1 6.396-1.399c2.131-.333 4.23-.6 6.295-.8 2.065-.2 3.897-.499 5.496-.899 1.599-.4 2.865-.966 3.797-1.699.933-.799 1.366-1.932 1.299-3.397 0-1.533-.266-2.732-.799-3.598-.466-.933-1.133-1.632-1.999-2.098-.799-.533-1.765-.866-2.897-1a19.093 19.093 0 0 0-3.498-.299c-2.798 0-4.996.599-6.595 1.798-1.599 1.199-2.532 3.198-2.798 5.996h-14.19Zm32.776 10.492c-.599.533-1.365.966-2.298 1.299-.866.267-1.832.5-2.898.7-.999.2-2.065.366-3.198.5a59.291 59.291 0 0 0-3.397.499c-1.066.2-2.132.467-3.198.8a9.428 9.428 0 0 0-2.698 1.399c-.733.533-1.332 1.232-1.799 2.098-.466.866-.699 1.965-.699 3.298 0 1.266.233 2.331.699 3.198a5.772 5.772 0 0 0 1.899 2.098c.8.466 1.732.799 2.798.999 1.066.2 2.165.3 3.298.3 2.798 0 4.963-.466 6.495-1.399s2.665-2.032 3.398-3.298c.732-1.332 1.165-2.664 1.299-3.997.2-1.332.299-2.398.299-3.197v-5.297Zm22.606-46.066v71.348h14.19v-71.348h-14.19Zm57.14 39.971h-23.083c.066-.999.266-2.132.599-3.398.4-1.265 1.033-2.465 1.899-3.597.933-1.133 2.132-2.065 3.597-2.798 1.533-.8 3.431-1.199 5.696-1.199 3.464 0 6.029.932 7.695 2.798 1.732 1.865 2.931 4.596 3.597 8.194Zm-23.083 8.993h37.273c.266-3.997-.067-7.827-.999-11.491-.933-3.664-2.465-6.929-4.597-9.793-2.065-2.865-4.73-5.13-7.994-6.795-3.265-1.733-7.095-2.599-11.492-2.599-3.931 0-7.528.7-10.792 2.099-3.198 1.399-5.963 3.331-8.294 5.796-2.332 2.398-4.131 5.263-5.396 8.594-1.266 3.33-1.899 6.928-1.899 10.792 0 3.997.6 7.661 1.799 10.992 1.265 3.331 3.031 6.195 5.296 8.594 2.265 2.398 5.03 4.263 8.294 5.596 3.264 1.265 6.928 1.898 10.992 1.898 5.862 0 10.859-1.332 14.989-3.997 4.131-2.665 7.195-7.095 9.194-13.29h-12.491c-.467 1.599-1.733 3.131-3.798 4.596-2.065 1.399-4.53 2.099-7.394 2.099-3.997 0-7.062-1.033-9.194-3.098-2.132-2.065-3.297-5.396-3.497-9.993Z" fill="#ED0000"/><path d="M180.208 431.99h2.788c-.041-1.219-.279-2.261-.712-3.129a5.872 5.872 0 0 0-1.735-2.199c-.723-.578-1.569-1.001-2.54-1.27a11.828 11.828 0 0 0-3.159-.403c-1.012 0-2.003.135-2.974.403-.95.248-1.807.64-2.571 1.177a5.83 5.83 0 0 0-1.796 2.014c-.454.805-.682 1.765-.682 2.88 0 1.012.197 1.859.589 2.54.413.661.95 1.208 1.611 1.642.681.413 1.445.753 2.292 1.022a51.01 51.01 0 0 0 2.571.681c.888.186 1.755.372 2.602.558.846.186 1.6.433 2.261.743.681.289 1.218.671 1.61 1.146.413.475.62 1.095.62 1.859 0 .805-.165 1.466-.496 1.982a3.74 3.74 0 0 1-1.301 1.239 6.158 6.158 0 0 1-1.827.62c-.661.123-1.322.185-1.983.185a9.477 9.477 0 0 1-2.416-.309 6.193 6.193 0 0 1-2.075-.961 5.218 5.218 0 0 1-1.425-1.641c-.351-.682-.526-1.487-.526-2.416h-2.788c0 1.342.238 2.509.712 3.5a7.098 7.098 0 0 0 1.983 2.416 9.069 9.069 0 0 0 2.911 1.394c1.116.31 2.293.464 3.532.464a12.71 12.71 0 0 0 3.035-.371 8.767 8.767 0 0 0 2.788-1.115 6.558 6.558 0 0 0 2.013-2.045c.537-.846.805-1.858.805-3.035 0-1.095-.206-2.003-.619-2.726a5.158 5.158 0 0 0-1.611-1.796 7.982 7.982 0 0 0-2.261-1.116 27.105 27.105 0 0 0-2.602-.743 64.373 64.373 0 0 0-2.571-.557 15.086 15.086 0 0 1-2.292-.682c-.661-.268-1.197-.609-1.61-1.022-.393-.434-.589-.991-.589-1.673 0-.722.134-1.321.403-1.796a3.39 3.39 0 0 1 1.115-1.177 5.04 5.04 0 0 1 1.61-.62 8.992 8.992 0 0 1 1.828-.186c1.528 0 2.777.362 3.748 1.085.991.702 1.569 1.848 1.734 3.438Zm21.046 15.58c-.455.268-1.084.403-1.89.403-.681 0-1.228-.186-1.641-.558-.393-.392-.589-1.022-.589-1.889-.723.867-1.569 1.497-2.54 1.889-.95.372-1.982.558-3.097.558a8.542 8.542 0 0 1-2.076-.248 4.794 4.794 0 0 1-1.672-.775 3.892 3.892 0 0 1-1.146-1.362c-.269-.579-.403-1.27-.403-2.076 0-.908.155-1.652.465-2.23a3.964 3.964 0 0 1 1.208-1.394 5.643 5.643 0 0 1 1.734-.836 21.877 21.877 0 0 1 2.014-.465 20.394 20.394 0 0 1 2.044-.309 14.872 14.872 0 0 0 1.735-.31c.495-.145.887-.341 1.177-.589.289-.268.433-.65.433-1.146 0-.578-.113-1.043-.341-1.394a2.087 2.087 0 0 0-.836-.805 3.249 3.249 0 0 0-1.146-.372 8.335 8.335 0 0 0-1.239-.093c-1.115 0-2.044.217-2.788.651-.743.413-1.146 1.208-1.208 2.385h-2.632c.041-.991.247-1.828.619-2.509a4.565 4.565 0 0 1 1.487-1.642 6.081 6.081 0 0 1 2.106-.929 11.396 11.396 0 0 1 2.571-.279c.723 0 1.435.052 2.137.155.723.103 1.373.32 1.952.651a3.583 3.583 0 0 1 1.393 1.332c.352.578.527 1.331.527 2.261v8.239c0 .619.031 1.074.093 1.363.083.289.33.433.743.433.228 0 .496-.051.806-.154v2.044Zm-4.275-8.208c-.33.247-.764.433-1.301.557a33.34 33.34 0 0 1-1.703.279c-.578.062-1.167.145-1.766.248a6.124 6.124 0 0 0-1.611.433 3.002 3.002 0 0 0-1.177.899c-.289.371-.433.888-.433 1.548 0 .434.082.806.248 1.115.185.29.413.527.681.713.289.186.62.32.991.403.372.082.764.123 1.177.123.868 0 1.611-.113 2.23-.34.62-.248 1.126-.547 1.518-.899.393-.371.682-.764.867-1.177.186-.433.279-.836.279-1.208v-2.694Zm13.942 8.27 5.854-16.014h-2.756l-4.368 13.35h-.062l-4.491-13.35h-2.943l5.947 16.014h2.819Zm19.39-9.54h-9.199c.041-.62.175-1.198.402-1.735a4.634 4.634 0 0 1 .93-1.456 4.106 4.106 0 0 1 1.393-.96 4.529 4.529 0 0 1 1.859-.372c.661 0 1.26.124 1.796.372a4.03 4.03 0 0 1 1.425.96c.413.393.733.868.961 1.425a5.17 5.17 0 0 1 .433 1.766Zm2.54 4.46h-2.602c-.227 1.053-.702 1.838-1.425 2.354-.702.516-1.61.774-2.725.774-.868 0-1.621-.144-2.262-.433a4.52 4.52 0 0 1-1.579-1.146 4.68 4.68 0 0 1-.898-1.673 6.476 6.476 0 0 1-.248-2.013h11.987a12.31 12.31 0 0 0-.279-3.067 8.458 8.458 0 0 0-1.177-2.973 6.666 6.666 0 0 0-2.261-2.23c-.929-.599-2.106-.899-3.531-.899-1.095 0-2.106.207-3.036.62a7.324 7.324 0 0 0-2.385 1.734 8.147 8.147 0 0 0-1.548 2.633c-.372 1.012-.558 2.127-.558 3.345.041 1.219.217 2.344.527 3.377.33 1.032.815 1.92 1.455 2.663a6.6 6.6 0 0 0 2.354 1.735c.95.413 2.065.62 3.346.62 1.817 0 3.324-.455 4.522-1.363 1.198-.909 1.972-2.261 2.323-4.058Zm13.518-2.912c0-.97.124-1.827.372-2.57.268-.765.63-1.405 1.084-1.921a4.598 4.598 0 0 1 1.58-1.177 4.862 4.862 0 0 1 1.951-.403 4.65 4.65 0 0 1 1.921.403 4.523 4.523 0 0 1 1.61 1.177c.455.516.806 1.156 1.053 1.921.269.743.403 1.6.403 2.57 0 .971-.134 1.838-.403 2.602-.247.744-.598 1.373-1.053 1.89a4.705 4.705 0 0 1-1.61 1.146 4.649 4.649 0 0 1-1.921.402 4.861 4.861 0 0 1-1.951-.402 4.787 4.787 0 0 1-1.58-1.146c-.454-.517-.816-1.146-1.084-1.89-.248-.764-.372-1.631-.372-2.602Zm-2.787 0c0 1.177.165 2.272.495 3.284a7.67 7.67 0 0 0 1.487 2.664 7.103 7.103 0 0 0 2.447 1.765c.97.413 2.086.62 3.345.62 1.28 0 2.395-.207 3.345-.62.971-.434 1.787-1.022 2.447-1.765a7.654 7.654 0 0 0 1.487-2.664c.331-1.012.496-2.107.496-3.284 0-1.177-.165-2.271-.496-3.283-.33-1.032-.826-1.92-1.487-2.664a6.895 6.895 0 0 0-2.447-1.796c-.95-.434-2.065-.651-3.345-.651-1.259 0-2.375.217-3.345.651a6.904 6.904 0 0 0-2.447 1.796c-.661.744-1.156 1.632-1.487 2.664-.33 1.012-.495 2.106-.495 3.283Zm18.653-8.022v16.014h2.633v-9.045c0-.722.093-1.383.279-1.982.206-.62.505-1.156.898-1.611a3.944 3.944 0 0 1 1.456-1.053c.598-.248 1.301-.372 2.106-.372 1.012 0 1.807.29 2.385.868.578.578.867 1.363.867 2.354v10.841h2.633v-10.531c0-.868-.093-1.652-.279-2.355-.165-.722-.464-1.342-.898-1.858s-1.002-.919-1.704-1.208c-.702-.289-1.579-.434-2.632-.434-2.375 0-4.11.971-5.204 2.912h-.062v-2.54h-2.478Zm32.12 18.151c-.31.785-.619 1.446-.929 1.982-.289.537-.62.971-.991 1.301a2.967 2.967 0 0 1-1.208.744c-.434.165-.94.248-1.518.248-.31 0-.62-.021-.929-.062a4.451 4.451 0 0 1-.899-.217v-2.416c.227.103.486.186.775.248.309.082.568.123.774.123.537 0 .981-.134 1.332-.402.372-.248.65-.609.836-1.084l1.084-2.695-6.349-15.921h2.973l4.677 13.102h.062l4.492-13.102h2.787l-6.969 18.151Zm11.12-10.129c0-.97.124-1.827.372-2.57.268-.765.629-1.405 1.084-1.921a4.603 4.603 0 0 1 1.579-1.177 4.867 4.867 0 0 1 1.952-.403c.681 0 1.321.135 1.92.403.62.269 1.157.661 1.611 1.177.454.516.805 1.156 1.053 1.921.268.743.403 1.6.403 2.57 0 .971-.135 1.838-.403 2.602-.248.744-.599 1.373-1.053 1.89a4.7 4.7 0 0 1-1.611 1.146 4.647 4.647 0 0 1-1.92.402 4.866 4.866 0 0 1-1.952-.402 4.794 4.794 0 0 1-1.579-1.146c-.455-.517-.816-1.146-1.084-1.89-.248-.764-.372-1.631-.372-2.602Zm-2.788 0c0 1.177.165 2.272.496 3.284a7.654 7.654 0 0 0 1.487 2.664c.66.743 1.476 1.331 2.446 1.765.971.413 2.086.62 3.346.62 1.28 0 2.395-.207 3.345-.62a7.103 7.103 0 0 0 2.447-1.765 7.67 7.67 0 0 0 1.487-2.664c.33-1.012.495-2.107.495-3.284 0-1.177-.165-2.271-.495-3.283-.331-1.032-.826-1.92-1.487-2.664a6.904 6.904 0 0 0-2.447-1.796c-.95-.434-2.065-.651-3.345-.651-1.26 0-2.375.217-3.346.651a6.9 6.9 0 0 0-2.446 1.796c-.661.744-1.157 1.632-1.487 2.664-.331 1.012-.496 2.106-.496 3.283Zm31.911 7.992v-16.014h-2.633v9.045a6.32 6.32 0 0 1-.31 2.013 4.38 4.38 0 0 1-.867 1.58 3.906 3.906 0 0 1-1.487 1.053c-.578.248-1.27.371-2.075.371-1.012 0-1.807-.289-2.385-.867-.579-.578-.868-1.363-.868-2.354v-10.841h-2.632v10.531c0 .868.082 1.663.247 2.385.186.702.496 1.312.93 1.828.433.516 1.001.919 1.703 1.208.702.268 1.58.403 2.633.403 1.177 0 2.199-.228 3.066-.682.868-.475 1.58-1.208 2.138-2.199h.062v2.54h2.478Zm3.861-16.014v16.014h2.633v-7.124c0-1.033.103-1.941.31-2.726.206-.805.537-1.487.991-2.044.454-.558 1.053-.981 1.796-1.27.744-.289 1.642-.434 2.695-.434v-2.788c-1.425-.041-2.602.248-3.531.868-.929.619-1.714 1.579-2.354 2.88h-.062v-3.376h-2.478Zm20.639 10.965h-2.633c.042.991.248 1.838.62 2.54a4.844 4.844 0 0 0 1.487 1.673 6.415 6.415 0 0 0 2.137.898c.805.186 1.652.279 2.54.279.805 0 1.61-.083 2.416-.248.826-.145 1.559-.413 2.199-.806a4.54 4.54 0 0 0 1.58-1.548c.413-.64.619-1.446.619-2.416 0-.764-.155-1.404-.464-1.921a3.671 3.671 0 0 0-1.177-1.27 5.787 5.787 0 0 0-1.673-.836c-.62-.206-1.26-.382-1.921-.527a60.967 60.967 0 0 0-1.858-.402 13.651 13.651 0 0 1-1.673-.496 4.491 4.491 0 0 1-1.239-.743 1.56 1.56 0 0 1-.464-1.146c0-.413.103-.744.31-.991.206-.269.474-.475.805-.62.33-.165.692-.279 1.084-.341a8.137 8.137 0 0 1 1.208-.093c.434 0 .857.052 1.27.155.434.083.826.227 1.177.434.351.206.64.485.867.836.227.331.362.754.403 1.27h2.633c-.062-.97-.269-1.776-.62-2.416a3.975 3.975 0 0 0-1.425-1.549c-.578-.392-1.249-.66-2.013-.805a11.89 11.89 0 0 0-2.509-.248c-.702 0-1.414.093-2.137.279a6.116 6.116 0 0 0-1.92.805 4.48 4.48 0 0 0-1.394 1.394c-.351.578-.527 1.27-.527 2.076 0 1.032.258 1.837.774 2.416a5.418 5.418 0 0 0 1.921 1.362c.785.31 1.631.558 2.54.744.908.165 1.745.361 2.509.588.784.207 1.435.486 1.951.837s.774.867.774 1.548c0 .496-.123.909-.371 1.239-.248.31-.568.548-.96.713a4.565 4.565 0 0 1-1.239.341 9.8 9.8 0 0 1-1.301.092 8.054 8.054 0 0 1-1.58-.154 4.896 4.896 0 0 1-1.363-.496 3.055 3.055 0 0 1-.96-.96c-.248-.413-.382-.909-.403-1.487Zm27.134 5.049v-16.014h-2.633v9.045a6.32 6.32 0 0 1-.31 2.013 4.38 4.38 0 0 1-.867 1.58 3.898 3.898 0 0 1-1.487 1.053c-.578.248-1.27.371-2.075.371-1.012 0-1.807-.289-2.385-.867-.578-.578-.867-1.363-.867-2.354v-10.841h-2.633v10.531c0 .868.082 1.663.248 2.385.185.702.495 1.312.929 1.828.433.516 1.001.919 1.703 1.208.702.268 1.58.403 2.633.403 1.177 0 2.199-.228 3.067-.682.867-.475 1.579-1.208 2.137-2.199h.062v2.54h2.478Zm3.954-16.014v16.014h2.633v-9.974c0-.31.072-.692.217-1.146.165-.475.413-.929.743-1.363a4.726 4.726 0 0 1 1.332-1.115c.558-.31 1.218-.465 1.983-.465.598 0 1.084.093 1.455.279.393.165.702.413.93.744.227.309.382.681.464 1.115.103.433.155.908.155 1.424v10.501h2.633v-9.974c0-1.239.372-2.23 1.115-2.973.743-.744 1.765-1.116 3.066-1.116.641 0 1.157.093 1.549.279.413.186.733.444.96.775.227.309.382.681.465 1.115.083.433.124.898.124 1.393v10.501h2.633v-11.739c0-.826-.135-1.529-.403-2.107a3.516 3.516 0 0 0-1.084-1.456c-.454-.371-1.012-.64-1.673-.805-.64-.186-1.363-.279-2.168-.279a6.078 6.078 0 0 0-2.912.713 5.628 5.628 0 0 0-2.106 2.013c-.33-.991-.898-1.693-1.703-2.106-.806-.413-1.704-.62-2.695-.62-2.251 0-3.975.909-5.173 2.726h-.062v-2.354h-2.478Zm26.407 0v16.014h2.633v-9.974c0-.31.072-.692.217-1.146.165-.475.413-.929.743-1.363a4.726 4.726 0 0 1 1.332-1.115c.558-.31 1.218-.465 1.982-.465.599 0 1.085.093 1.456.279.393.165.702.413.929.744.228.309.383.681.465 1.115.103.433.155.908.155 1.424v10.501h2.633v-9.974c0-1.239.372-2.23 1.115-2.973.743-.744 1.765-1.116 3.066-1.116.641 0 1.157.093 1.549.279.413.186.733.444.96.775.227.309.382.681.465 1.115.083.433.124.898.124 1.393v10.501h2.633v-11.739c0-.826-.135-1.529-.403-2.107a3.516 3.516 0 0 0-1.084-1.456c-.454-.371-1.012-.64-1.673-.805-.64-.186-1.363-.279-2.168-.279a6.078 6.078 0 0 0-2.912.713 5.628 5.628 0 0 0-2.106 2.013c-.33-.991-.898-1.693-1.703-2.106-.806-.413-1.704-.62-2.695-.62-2.251 0-3.975.909-5.173 2.726h-.062v-2.354h-2.478Zm37.527 6.474h-9.199c.041-.62.175-1.198.402-1.735a4.631 4.631 0 0 1 .929-1.456 4.11 4.11 0 0 1 1.394-.96 4.525 4.525 0 0 1 1.859-.372 4.23 4.23 0 0 1 1.796.372 4.03 4.03 0 0 1 1.425.96c.413.393.733.868.96 1.425.248.558.393 1.146.434 1.766Zm2.54 4.46h-2.602c-.227 1.053-.702 1.838-1.425 2.354-.702.516-1.611.774-2.726.774-.867 0-1.621-.144-2.261-.433a4.52 4.52 0 0 1-1.579-1.146 4.697 4.697 0 0 1-.899-1.673 6.475 6.475 0 0 1-.247-2.013h11.987a12.31 12.31 0 0 0-.279-3.067 8.477 8.477 0 0 0-1.177-2.973 6.675 6.675 0 0 0-2.261-2.23c-.93-.599-2.107-.899-3.531-.899-1.095 0-2.107.207-3.036.62a7.324 7.324 0 0 0-2.385 1.734 8.149 8.149 0 0 0-1.549 2.633c-.371 1.012-.557 2.127-.557 3.345.041 1.219.217 2.344.526 3.377.331 1.032.816 1.92 1.456 2.663a6.59 6.59 0 0 0 2.354 1.735c.95.413 2.065.62 3.345.62 1.818 0 3.325-.455 4.523-1.363 1.197-.909 1.972-2.261 2.323-4.058Zm2.884-10.934v16.014h2.633v-7.124c0-1.033.103-1.941.309-2.726.207-.805.537-1.487.992-2.044.454-.558 1.053-.981 1.796-1.27.744-.289 1.642-.434 2.695-.434v-2.788c-1.425-.041-2.602.248-3.531.868-.929.619-1.714 1.579-2.354 2.88h-.062v-3.376h-2.478Zm20.639 10.965h-2.633c.042.991.248 1.838.62 2.54a4.842 4.842 0 0 0 1.486 1.673 6.42 6.42 0 0 0 2.138.898c.805.186 1.652.279 2.54.279.805 0 1.61-.083 2.416-.248.826-.145 1.559-.413 2.199-.806a4.54 4.54 0 0 0 1.58-1.548c.413-.64.619-1.446.619-2.416 0-.764-.155-1.404-.465-1.921a3.653 3.653 0 0 0-1.177-1.27 5.781 5.781 0 0 0-1.672-.836c-.62-.206-1.26-.382-1.921-.527a61.627 61.627 0 0 0-1.858-.402c-.62-.145-1.177-.31-1.673-.496a4.491 4.491 0 0 1-1.239-.743 1.56 1.56 0 0 1-.464-1.146c0-.413.103-.744.309-.991.207-.269.475-.475.806-.62.33-.165.691-.279 1.084-.341a8.126 8.126 0 0 1 1.208-.093c.433 0 .857.052 1.27.155a3.65 3.65 0 0 1 1.177.434c.351.206.64.485.867.836.227.331.361.754.403 1.27h2.633c-.062-.97-.269-1.776-.62-2.416a3.975 3.975 0 0 0-1.425-1.549c-.578-.392-1.249-.66-2.013-.805a11.89 11.89 0 0 0-2.509-.248c-.702 0-1.415.093-2.137.279a6.132 6.132 0 0 0-1.921.805 4.5 4.5 0 0 0-1.394 1.394c-.351.578-.526 1.27-.526 2.076 0 1.032.258 1.837.774 2.416a5.418 5.418 0 0 0 1.921 1.362c.784.31 1.631.558 2.54.744.908.165 1.745.361 2.509.588.784.207 1.435.486 1.951.837s.774.867.774 1.548c0 .496-.124.909-.371 1.239a2.39 2.39 0 0 1-.961.713 4.545 4.545 0 0 1-1.239.341 9.788 9.788 0 0 1-1.301.092 8.051 8.051 0 0 1-1.579-.154 4.896 4.896 0 0 1-1.363-.496 3.055 3.055 0 0 1-.96-.96c-.248-.413-.382-.909-.403-1.487Zm24.996-4.491h-9.199c.041-.62.176-1.198.403-1.735a4.631 4.631 0 0 1 .929-1.456 4.1 4.1 0 0 1 1.394-.96 4.52 4.52 0 0 1 1.858-.372c.661 0 1.26.124 1.797.372a4.047 4.047 0 0 1 1.425.96c.413.393.733.868.96 1.425.248.558.392 1.146.433 1.766Zm2.54 4.46h-2.602c-.227 1.053-.702 1.838-1.424 2.354-.702.516-1.611.774-2.726.774-.867 0-1.621-.144-2.261-.433-.64-.289-1.167-.671-1.58-1.146a4.695 4.695 0 0 1-.898-1.673 6.476 6.476 0 0 1-.248-2.013h11.987a12.264 12.264 0 0 0-.279-3.067 8.439 8.439 0 0 0-1.177-2.973 6.666 6.666 0 0 0-2.261-2.23c-.929-.599-2.106-.899-3.531-.899-1.094 0-2.106.207-3.035.62a7.303 7.303 0 0 0-2.385 1.734 8.149 8.149 0 0 0-1.549 2.633c-.372 1.012-.558 2.127-.558 3.345.042 1.219.217 2.344.527 3.377.33 1.032.816 1.92 1.456 2.663a6.59 6.59 0 0 0 2.354 1.735c.95.413 2.065.62 3.345.62 1.817 0 3.325-.455 4.522-1.363 1.198-.909 1.972-2.261 2.323-4.058Zm2.977-10.934v16.014h2.633v-9.045c0-.722.093-1.383.279-1.982.206-.62.506-1.156.898-1.611a3.96 3.96 0 0 1 1.456-1.053c.599-.248 1.301-.372 2.106-.372 1.012 0 1.807.29 2.385.868.578.578.868 1.363.868 2.354v10.841h2.632v-10.531c0-.868-.093-1.652-.278-2.355-.166-.722-.465-1.342-.899-1.858-.433-.516-1.001-.919-1.703-1.208-.702-.289-1.58-.434-2.633-.434-2.375 0-4.109.971-5.204 2.912h-.062v-2.54h-2.478Zm19.132 8.146c0-.784.083-1.548.248-2.292a6.074 6.074 0 0 1 .805-1.982 4.202 4.202 0 0 1 1.487-1.394c.62-.351 1.373-.527 2.261-.527.909 0 1.683.176 2.323.527a4.22 4.22 0 0 1 1.549 1.332c.413.557.712 1.208.898 1.951a9.042 9.042 0 0 1 0 4.461 5.708 5.708 0 0 1-.836 1.951 4.586 4.586 0 0 1-1.518 1.363c-.619.351-1.373.526-2.261.526-.847 0-1.59-.165-2.23-.495a4.599 4.599 0 0 1-1.549-1.332 6.386 6.386 0 0 1-.898-1.889 8.794 8.794 0 0 1-.279-2.2Zm12.39 7.868v-22.116h-2.633v8.239h-.062a3.948 3.948 0 0 0-1.084-1.177 5.111 5.111 0 0 0-1.332-.774 6.256 6.256 0 0 0-1.425-.434 7.862 7.862 0 0 0-1.332-.124c-1.218 0-2.292.227-3.221.682a6.514 6.514 0 0 0-2.292 1.796c-.599.744-1.053 1.621-1.363 2.633a11.68 11.68 0 0 0-.434 3.221c0 1.136.155 2.21.465 3.222.31 1.012.764 1.9 1.363 2.664a6.846 6.846 0 0 0 2.292 1.827c.929.454 2.013.682 3.252.682 1.115 0 2.138-.197 3.067-.589.929-.392 1.61-1.032 2.044-1.92h.062v2.168h2.633Zm3.617-9.85v2.478h8.952v-2.478h-8.952Zm14.393 1.858c0-.97.124-1.827.372-2.57.268-.765.629-1.405 1.084-1.921a4.603 4.603 0 0 1 1.579-1.177 4.867 4.867 0 0 1 1.952-.403c.681 0 1.321.135 1.92.403.62.269 1.157.661 1.611 1.177.454.516.805 1.156 1.053 1.921.268.743.403 1.6.403 2.57 0 .971-.135 1.838-.403 2.602-.248.744-.599 1.373-1.053 1.89a4.7 4.7 0 0 1-1.611 1.146 4.647 4.647 0 0 1-1.92.402 4.866 4.866 0 0 1-1.952-.402 4.794 4.794 0 0 1-1.579-1.146c-.455-.517-.816-1.146-1.084-1.89-.248-.764-.372-1.631-.372-2.602Zm-2.788 0c0 1.177.165 2.272.496 3.284a7.654 7.654 0 0 0 1.487 2.664c.66.743 1.476 1.331 2.447 1.765.97.413 2.085.62 3.345.62 1.28 0 2.395-.207 3.345-.62a7.103 7.103 0 0 0 2.447-1.765 7.67 7.67 0 0 0 1.487-2.664c.33-1.012.495-2.107.495-3.284 0-1.177-.165-2.271-.495-3.283-.331-1.032-.826-1.92-1.487-2.664a6.904 6.904 0 0 0-2.447-1.796c-.95-.434-2.065-.651-3.345-.651-1.26 0-2.375.217-3.345.651a6.895 6.895 0 0 0-2.447 1.796c-.661.744-1.157 1.632-1.487 2.664-.331 1.012-.496 2.106-.496 3.283Zm28.442-5.699h-6.071v13.691h-2.633v-13.691h-2.695v-2.323h2.695v-2.385c0-1.301.371-2.282 1.115-2.943.764-.681 1.869-1.022 3.314-1.022.248 0 .527.021.836.062.331.042.62.103.868.186v2.292a2.839 2.839 0 0 0-.744-.155 4.945 4.945 0 0 0-.743-.062c-.64 0-1.136.124-1.487.372-.351.248-.526.723-.526 1.425v2.23h6.071v-2.385c0-1.301.371-2.282 1.115-2.943.764-.681 1.868-1.022 3.314-1.022.248 0 .526.021.836.062.331.042.62.103.867.186v2.292a2.822 2.822 0 0 0-.743-.155 4.945 4.945 0 0 0-.743-.062c-.64 0-1.136.124-1.487.372-.351.248-.527.723-.527 1.425v2.23h3.098v2.323h-3.098v13.691h-2.632v-13.691Zm8.677 10.253v3.438h3.438v-3.438h-3.438Z" fill="#000"/><rect x="283" y="485" width="201.682" height="58" rx="4.833" fill="#fff"/><path d="M336.833 510.202h2.25c-.033-.984-.225-1.825-.575-2.525a4.734 4.734 0 0 0-1.4-1.775 5.634 5.634 0 0 0-2.05-1.025 9.52 9.52 0 0 0-2.55-.325c-.817 0-1.617.108-2.4.325-.767.2-1.458.516-2.075.95a4.7 4.7 0 0 0-1.45 1.625c-.367.65-.55 1.425-.55 2.325 0 .816.158 1.5.475 2.05a4.29 4.29 0 0 0 1.3 1.325c.55.333 1.167.608 1.85.825.683.2 1.375.383 2.075.55.717.15 1.417.3 2.1.45.683.15 1.292.35 1.825.6.55.233.983.541 1.3.925.333.383.5.883.5 1.5 0 .65-.133 1.183-.4 1.6a3.03 3.03 0 0 1-1.05 1 4.97 4.97 0 0 1-1.475.5c-.533.1-1.067.15-1.6.15a7.656 7.656 0 0 1-1.95-.25 4.997 4.997 0 0 1-1.675-.775 4.215 4.215 0 0 1-1.15-1.325c-.283-.55-.425-1.2-.425-1.95h-2.25c0 1.083.192 2.025.575 2.825.4.783.933 1.433 1.6 1.95.683.5 1.467.875 2.35 1.125a10.603 10.603 0 0 0 5.3.075 7.114 7.114 0 0 0 2.25-.9 5.308 5.308 0 0 0 1.625-1.65c.433-.684.65-1.5.65-2.45 0-.884-.167-1.617-.5-2.2a4.167 4.167 0 0 0-1.3-1.45 6.397 6.397 0 0 0-1.825-.9 21.292 21.292 0 0 0-2.1-.6c-.7-.167-1.392-.317-2.075-.45a12.27 12.27 0 0 1-1.85-.55c-.533-.217-.967-.492-1.3-.825-.317-.35-.475-.8-.475-1.35 0-.584.108-1.067.325-1.45.233-.4.533-.717.9-.95.383-.234.817-.4 1.3-.5.483-.1.975-.15 1.475-.15 1.233 0 2.242.291 3.025.875.8.566 1.267 1.491 1.4 2.775Zm5.536-5.225v17.85h2.125v-7.3c0-.584.075-1.117.225-1.6.167-.5.408-.934.725-1.3.317-.367.708-.65 1.175-.85.483-.2 1.05-.3 1.7-.3.817 0 1.458.233 1.925.7.467.466.7 1.1.7 1.9v8.75h2.125v-8.5c0-.7-.075-1.334-.225-1.9a3.494 3.494 0 0 0-.725-1.5c-.35-.417-.808-.742-1.375-.975-.567-.234-1.275-.35-2.125-.35-.383 0-.783.041-1.2.125-.4.083-.792.216-1.175.4-.367.166-.7.391-1 .675-.3.266-.533.6-.7 1h-.05v-6.825h-2.125Zm15.442 11.4c0-.784.1-1.475.3-2.075.216-.617.508-1.134.875-1.55a3.68 3.68 0 0 1 1.275-.95 3.914 3.914 0 0 1 1.575-.325c.55 0 1.066.108 1.55.325.5.216.933.533 1.3.95.366.416.65.933.85 1.55.216.6.325 1.291.325 2.075 0 .783-.109 1.483-.325 2.1a4.38 4.38 0 0 1-.85 1.525c-.367.4-.8.708-1.3.925-.484.216-1 .325-1.55.325s-1.075-.109-1.575-.325a3.845 3.845 0 0 1-1.275-.925 4.676 4.676 0 0 1-.875-1.525c-.2-.617-.3-1.317-.3-2.1Zm-2.25 0c0 .95.133 1.833.4 2.65a6.166 6.166 0 0 0 1.2 2.15 5.72 5.72 0 0 0 1.975 1.425c.783.333 1.683.5 2.7.5 1.033 0 1.933-.167 2.7-.5a5.738 5.738 0 0 0 1.975-1.425 6.198 6.198 0 0 0 1.2-2.15c.266-.817.4-1.7.4-2.65s-.134-1.834-.4-2.65a5.897 5.897 0 0 0-1.2-2.15 5.586 5.586 0 0 0-1.975-1.45c-.767-.35-1.667-.525-2.7-.525-1.017 0-1.917.175-2.7.525a5.568 5.568 0 0 0-1.975 1.45 5.868 5.868 0 0 0-1.2 2.15c-.267.816-.4 1.7-.4 2.65Zm15.13-6.475v17.85h2.125v-6.65h.05c.233.383.517.708.85.975.35.25.717.45 1.1.6.383.15.767.258 1.15.325.4.066.758.1 1.075.1.983 0 1.842-.175 2.575-.525a5.101 5.101 0 0 0 1.85-1.425c.5-.617.867-1.334 1.1-2.15a8.84 8.84 0 0 0 .375-2.6 8.83 8.83 0 0 0-.375-2.6 6.294 6.294 0 0 0-1.125-2.15 5.094 5.094 0 0 0-1.85-1.5c-.733-.367-1.6-.55-2.6-.55-.9 0-1.725.166-2.475.5-.75.316-1.3.833-1.65 1.55h-.05v-1.75h-2.125Zm10 6.35c0 .633-.067 1.25-.2 1.85a4.89 4.89 0 0 1-.65 1.6c-.3.466-.7.841-1.2 1.125-.483.283-1.092.425-1.825.425-.733 0-1.358-.134-1.875-.4a3.89 3.89 0 0 1-1.275-1.1 4.696 4.696 0 0 1-.7-1.55 7.6 7.6 0 0 1-.225-1.85c0-.6.067-1.192.2-1.775.15-.584.383-1.1.7-1.55a3.605 3.605 0 0 1 1.225-1.125c.5-.284 1.108-.425 1.825-.425.683 0 1.275.133 1.775.4.517.266.933.625 1.25 1.075.333.45.575.966.725 1.55.167.566.25 1.15.25 1.75Zm12.027-11.275v17.85h2.25v-14.325h.05l9.325 14.325h2.6v-17.85h-2.25v14.475h-.05l-9.4-14.475h-2.525Zm19.267 11.4c0-.784.1-1.475.3-2.075.217-.617.509-1.134.875-1.55a3.699 3.699 0 0 1 1.275-.95 3.914 3.914 0 0 1 1.575-.325c.55 0 1.067.108 1.55.325.5.216.934.533 1.3.95.367.416.65.933.85 1.55.217.6.325 1.291.325 2.075 0 .783-.108 1.483-.325 2.1-.2.6-.483 1.108-.85 1.525-.366.4-.8.708-1.3.925-.483.216-1 .325-1.55.325s-1.075-.109-1.575-.325a3.865 3.865 0 0 1-1.275-.925 4.712 4.712 0 0 1-.875-1.525c-.2-.617-.3-1.317-.3-2.1Zm-2.25 0c0 .95.134 1.833.4 2.65a6.198 6.198 0 0 0 1.2 2.15 5.738 5.738 0 0 0 1.975 1.425c.784.333 1.684.5 2.7.5 1.034 0 1.934-.167 2.7-.5a5.72 5.72 0 0 0 1.975-1.425 6.166 6.166 0 0 0 1.2-2.15c.267-.817.4-1.7.4-2.65s-.133-1.834-.4-2.65a5.868 5.868 0 0 0-1.2-2.15 5.568 5.568 0 0 0-1.975-1.45c-.766-.35-1.666-.525-2.7-.525-1.016 0-1.916.175-2.7.525a5.586 5.586 0 0 0-1.975 1.45 5.897 5.897 0 0 0-1.2 2.15c-.266.816-.4 1.7-.4 2.65Zm27.856 6.45 4.125-12.925h-2.2l-2.9 10.575h-.05l-2.7-10.575h-2.325l-2.6 10.575h-.05l-2.925-10.575h-2.35l4.15 12.925h2.3l2.6-10.275h.05l2.625 10.275h2.25Z" fill="#252525"/></svg>